<?xml version="1.0" encoding="UTF-8" standalone="no"?>
<svg width="75px" height="74px" viewBox="0 0 75 74" version="1.1" xmlns="http://www.w3.org/2000/svg" xmlns:xlink="http://www.w3.org/1999/xlink">
    <!-- Generator: Sketch 41.2 (35397) - http://www.bohemiancoding.com/sketch -->
    <title>Group 5</title>
    <desc>Created with Sketch.</desc>
    <defs>
        <linearGradient x1="-1.11022302e-14%" y1="50%" x2="100%" y2="50%" id="linearGradient-1">
            <stop stop-color="#FBDA61" offset="0%"></stop>
            <stop stop-color="#F76B1C" offset="100%"></stop>
        </linearGradient>
    </defs>
    <g id="SMP-flows" stroke="none" stroke-width="1" fill="none" fill-rule="evenodd">
        <g id="Alice-3" transform="translate(-770.000000, -204.000000)">
            <g id="Group-5" transform="translate(761.000000, 194.000000)">
                <g id="Group-10" transform="translate(23.000000, 34.000000)">
                    <path d="M44.2990354,5.68455577 C45.1080058,6.50075992 45.5118489,7.48473936 45.5118489,8.63908522 C45.5118489,9.79148774 45.1080058,10.7754672 44.2990354,11.5916713 C43.490065,12.4085233 42.5141642,12.8159775 41.371333,12.8159775 C40.2285018,12.8159775 39.252601,12.4085233 38.4436306,11.5916713 C37.6353022,10.7754672 37.230817,9.79148774 37.230817,8.63908522 C37.230817,7.48473936 37.6353022,6.50075992 38.4436306,5.68455577 C39.252601,4.86899941 40.2285018,4.46024955 41.371333,4.46024955 C42.5141642,4.46024955 43.490065,4.86899941 44.2990354,5.68455577 Z M48.9621719,19.3532101 C48.9621719,20.2238279 48.7002196,20.9111236 48.1756729,21.4144495 C47.6504842,21.9197187 46.9532287,22.17041 46.0832645,22.17041 L36.6594014,22.17041 C35.7894372,22.17041 35.0921818,21.9197187 34.5676351,21.4144495 C34.0424464,20.9111236 33.7804941,20.2238279 33.7804941,19.3532101 C33.7804941,18.9690759 33.7933349,18.5940107 33.8183744,18.2273666 C33.843414,17.8607225 33.8934931,17.4662239 33.9692538,17.0412795 C34.0443725,16.6169829 34.1400365,16.2237798 34.2549616,15.8610224 C34.3698868,15.498265 34.5246184,15.1452243 34.7185145,14.799957 C34.9124106,14.4559852 35.1358405,14.1625404 35.3868782,13.9189747 C35.6385578,13.6760568 35.945453,13.4817225 36.3088476,13.3372673 C36.6716002,13.1928122 37.0728752,13.1196129 37.5113885,13.1196129 C37.5762346,13.1196129 37.727114,13.1979944 37.9640267,13.3534619 C38.2015815,13.5095771 38.4693122,13.6838302 38.7672188,13.8755734 C39.0657674,14.0679644 39.4542016,14.2422175 39.9318793,14.3983327 C40.4101991,14.5531524 40.889161,14.6315339 41.371333,14.6315339 C41.852863,14.6315339 42.3324669,14.5531524 42.8107867,14.3983327 C43.2884644,14.2422175 43.6768986,14.0679644 43.9754472,13.8755734 C44.2733538,13.6838302 44.5417265,13.5095771 44.7786393,13.3534619 C45.0161941,13.1979944 45.1670735,13.1196129 45.2319195,13.1196129 C45.6697908,13.1196129 46.0710658,13.1928122 46.4338184,13.3372673 C46.797213,13.4817225 47.1041081,13.6760568 47.3557878,13.9189747 C47.6074675,14.1625404 47.8302554,14.4559852 48.0241515,14.799957 C48.2180475,15.1452243 48.3727792,15.498265 48.4883464,15.8610224 C48.6032715,16.2237798 48.6982935,16.6169829 48.7734121,17.0412795 C48.8491729,17.4662239 48.899252,17.8607225 48.9249336,18.2273666 C48.9499731,18.5940107 48.9621719,18.9690759 48.9621719,19.3532101 Z" id="Stroke-7" stroke="#4A4A4A" stroke-width="0.64" fill="#FFFFFF"></path>
                    <g id="Group-4">
                        <path d="M10.7455099,12.2945379 C11.5544803,13.1107421 11.9583235,14.0947215 11.9583235,15.2490674 C11.9583235,16.4014699 11.5544803,17.3854494 10.7455099,18.2016535 C9.93653951,19.0185054 8.96063871,19.4259597 7.81780751,19.4259597 C6.67497632,19.4259597 5.69907552,19.0185054 4.89010512,18.2016535 C4.08177676,17.3854494 3.67729156,16.4014699 3.67729156,15.2490674 C3.67729156,14.0947215 4.08177676,13.1107421 4.89010512,12.2945379 C5.69907552,11.4789816 6.67497632,11.0702317 7.81780751,11.0702317 C8.96063871,11.0702317 9.93653951,11.4789816 10.7455099,12.2945379 Z M15.4086464,24.9631923 C15.4086464,25.83381 15.1466941,26.5211058 14.6221474,27.0244317 C14.0969587,27.5297009 13.3997033,27.7803922 12.5297391,27.7803922 L3.10587596,27.7803922 C2.23591176,27.7803922 1.53865632,27.5297009 1.01410964,27.0244317 C0.488920925,26.5211058 0.226968605,25.83381 0.226968605,24.9631923 C0.226968605,24.5790581 0.239809405,24.2039929 0.264848965,23.8373488 C0.289888525,23.4707047 0.339967645,23.076206 0.415728365,22.6512617 C0.490847045,22.2269651 0.586511005,21.833762 0.701436165,21.4710046 C0.816361324,21.1082472 0.971092964,20.7552065 1.16498904,20.4099392 C1.35888512,20.0659674 1.58231504,19.7725226 1.83335268,19.5289569 C2.08503236,19.286039 2.39192748,19.0917047 2.75532212,18.9472495 C3.11807472,18.8027943 3.51934972,18.7295951 3.95786304,18.7295951 C4.02270908,18.7295951 4.17358848,18.8079766 4.41050124,18.963444 C4.64805604,19.1195593 4.91578672,19.2938124 5.21369328,19.4855556 C5.51224188,19.6779466 5.90067608,19.8521997 6.37835384,20.0083149 C6.85667364,20.1631346 7.33563547,20.2415161 7.81780751,20.2415161 C8.29933751,20.2415161 8.77894139,20.1631346 9.25726119,20.0083149 C9.73493895,19.8521997 10.1233732,19.6779466 10.4219218,19.4855556 C10.7198283,19.2938124 10.988201,19.1195593 11.2251138,18.963444 C11.4626686,18.8079766 11.613548,18.7295951 11.678394,18.7295951 C12.1162653,18.7295951 12.5175403,18.8027943 12.8802929,18.9472495 C13.2436875,19.0917047 13.5505827,19.286039 13.8022623,19.5289569 C14.053942,19.7725226 14.2767299,20.0659674 14.470626,20.4099392 C14.6645221,20.7552065 14.8192537,21.1082472 14.9348209,21.4710046 C15.0497461,21.833762 15.144768,22.2269651 15.2198867,22.6512617 C15.2956474,23.076206 15.3457265,23.4707047 15.3714081,23.8373488 C15.3964477,24.2039929 15.4086464,24.5790581 15.4086464,24.9631923 Z" id="Stroke-7-Copy-5" fill="#4A4A4A"></path>
                        <path d="M28.7313433,7.9144385 C28.7313433,7.53181627 28.5951888,7.20514841 28.3228758,6.93442513 C28.0505628,6.66370185 27.7219766,6.52834225 27.3371076,6.52834225 C26.9522385,6.52834225 26.6236524,6.66370185 26.3513393,6.93442513 C26.0790263,7.20514841 25.9428718,7.53181627 25.9428718,7.9144385 C25.9428718,8.29706074 26.0790263,8.62372859 26.3513393,8.89445187 C26.6236524,9.16517515 26.9522385,9.30053476 27.3371076,9.30053476 C27.7219766,9.30053476 28.0505628,9.16517515 28.3228758,8.89445187 C28.5951888,8.62372859 28.7313433,8.29706074 28.7313433,7.9144385 Z M24.0064334,7.9144385 C24.0064334,7.53181627 23.8702789,7.20514841 23.5979659,6.93442513 C23.3256528,6.66370185 22.9970667,6.52834225 22.6121976,6.52834225 C22.2273286,6.52834225 21.8987424,6.66370185 21.6264294,6.93442513 C21.3541164,7.20514841 21.2179619,7.53181627 21.2179619,7.9144385 C21.2179619,8.29706074 21.3541164,8.62372859 21.6264294,8.89445187 C21.8987424,9.16517515 22.2273286,9.30053476 22.6121976,9.30053476 C22.9970667,9.30053476 23.3256528,9.16517515 23.5979659,8.89445187 C23.8702789,8.62372859 24.0064334,8.29706074 24.0064334,7.9144385 Z M19.2815234,7.9144385 C19.2815234,7.53181627 19.1453689,7.20514841 18.8730559,6.93442513 C18.6007429,6.66370185 18.2721568,6.52834225 17.8872877,6.52834225 C17.5024186,6.52834225 17.1738325,6.66370185 16.9015195,6.93442513 C16.6292065,7.20514841 16.493052,7.53181627 16.493052,7.9144385 C16.493052,8.29706074 16.6292065,8.62372859 16.9015195,8.89445187 C17.1738325,9.16517515 17.5024186,9.30053476 17.8872877,9.30053476 C18.2721568,9.30053476 18.6007429,9.16517515 18.8730559,8.89445187 C19.1453689,8.62372859 19.2815234,8.29706074 19.2815234,7.9144385 Z" id="" fill="#F2565B"></path>
                        <path d="M32.2169326,7.21996435 C32.2169326,8.47612036 31.7812383,9.63660341 30.9098366,10.7014483 C30.0384349,11.7662932 28.8547987,12.6073276 27.3588925,13.2245766 C25.8629863,13.8418257 24.2291326,14.1504456 22.4572826,14.1504456 C21.6584977,14.1504456 20.8924019,14.085473 20.1589721,13.9555258 C18.9027014,15.2044626 17.3233095,16.0310586 15.4207492,16.4353387 C15.0431418,16.5075316 14.7308942,16.5544562 14.483997,16.5761141 C14.3968569,16.5833334 14.3169796,16.5616758 14.2443628,16.5111408 C14.171746,16.4606058 14.1245458,16.3956332 14.1027607,16.316221 C14.073714,16.2079317 14.1463297,16.0743769 14.32061,15.9155526 C14.3569184,15.8794561 14.4422419,15.80185 14.576583,15.6827317 C14.7109241,15.5636135 14.8035091,15.4787881 14.8543409,15.4282531 C14.9051727,15.3777181 14.9904961,15.2856736 15.1103139,15.1521168 C15.2301316,15.0185599 15.3172705,14.9048579 15.3717331,14.8110071 C15.4261957,14.7171564 15.5006268,14.5836016 15.5950286,14.4103387 C15.6894305,14.2370758 15.7620462,14.0638155 15.812878,13.8905526 C15.8637097,13.7172897 15.9163561,13.5097383 15.9708187,13.2678922 C16.0252813,13.026046 16.0706662,12.7643508 16.1069746,12.4827986 C15.0467692,11.8330627 14.2135038,11.0515866 13.6071535,10.1383467 C13.0008031,9.22510684 12.6976325,8.25232245 12.6976325,7.21996435 C12.6976325,5.96380834 13.1333268,4.80332529 14.0047285,3.73848039 C14.8761302,2.6736355 16.0597664,1.83260113 17.5556726,1.21535205 C19.0515788,0.598102974 20.6854325,0.289483066 22.4572826,0.289483066 C24.2291326,0.289483066 25.8629863,0.598102974 27.3588925,1.21535205 C28.8547987,1.83260113 30.0384349,2.6736355 30.9098366,3.73848039 C31.7812383,4.80332529 32.2169326,5.96380834 32.2169326,7.21996435 Z" id="Path" stroke="#F2565B" stroke-width="0.64"></path>
                    </g>
                </g>
                <path d="M55.4206957,81.1654798 C52.7663517,81.7617183 50.0012591,82.0768451 47.1604264,82.0768451 C26.9881423,82.0768451 10.6348139,66.1875656 10.6348139,46.5876988 C10.6348139,26.9898035 26.9881423,11.0985524 47.1604264,11.0985524 C67.3327105,11.0985524 83.6860388,26.9898035 83.6860388,46.5876988 C83.6860388,48.2017294 83.5751409,49.7905973 83.3603447,51.3475012 C83.4491537,50.3698658 83.4945021,49.3801143 83.4945021,48.3800799 C83.4945021,29.9699359 68.1223734,15.0417909 49.1604264,15.0417909 C30.1984793,15.0417909 14.8263507,29.9699359 14.8263507,48.3800799 C14.8263507,66.792076 30.1984793,81.7183689 49.1604264,81.7183689 C51.298453,81.7183689 53.390841,81.5286055 55.4207007,81.1654787 Z" id="Combined-Shape-Copy" fill-opacity="0.8" fill="#E8E8E7" transform="translate(47.160426, 46.587699) rotate(-22.000000) translate(-47.160426, -46.587699) "></path>
                <path d="M46.5256125,83 C26.3533284,83 10,66.882 10,47 C10,27.12 26.3533284,11 46.5256125,11 C66.6978966,11 83.0512249,27.12 83.0512249,47 C83.0512249,66.882 66.6978966,83 46.5256125,83 Z" id="Stroke-7-Copy-7" stroke="url(#linearGradient-1)" transform="translate(46.525612, 47.000000) scale(-1, 1) translate(-46.525612, -47.000000) "></path>
            </g>
        </g>
    </g>
</svg>