<?xml version="1.0" encoding="UTF-8" standalone="no"?>
<svg width="70px" height="59px" viewBox="0 0 70 59" version="1.1" xmlns="http://www.w3.org/2000/svg" xmlns:xlink="http://www.w3.org/1999/xlink">
    <!-- Generator: Sketch 41.2 (35397) - http://www.bohemiancoding.com/sketch -->
    <title>Group 3</title>
    <desc>Created with Sketch.</desc>
    <defs>
        <linearGradient x1="-1.11022302e-14%" y1="50%" x2="100%" y2="50%" id="linearGradient-1">
            <stop stop-color="#FBDA61" offset="0%"></stop>
            <stop stop-color="#F76B1C" offset="100%"></stop>
        </linearGradient>
        <linearGradient x1="100%" y1="50%" x2="2.30986926%" y2="50%" id="linearGradient-2">
            <stop stop-color="#5BEDAC" offset="0%"></stop>
            <stop stop-color="#2DAB49" offset="100%"></stop>
        </linearGradient>
    </defs>
    <g id="SMP-flows" stroke="none" stroke-width="1" fill="none" fill-rule="evenodd">
        <g id="Alice-3" transform="translate(-831.000000, -166.000000)">
            <g id="Group-3" transform="translate(823.000000, 157.000000)">
                <g id="Group" transform="translate(0.320853, 0.000000)">
                    <g id="Group-2" transform="translate(19.200000, 22.542553)">
                        <g id="computer" transform="translate(0.143284, 0.281602)">
                            <rect id="Rectangle-5" fill="#FFFFFF" x="6.16119403" y="2.02753442" width="24.1313433" height="13.2211304"></rect>
                            <rect id="Rectangle-3-Copy-14" fill="#E9E9EA" x="30.5259159" y="0" width="1.54029851" height="17.2340426" rx="0.770149254"></rect>
                            <rect id="Rectangle-3-Copy-15" fill="#E9E9EA" transform="translate(26.931886, 17.994368) rotate(-90.000000) translate(-26.931886, -17.994368) " x="26.1617368" y="9.37734668" width="1.54029851" height="17.2340426" rx="0.770149254"></rect>
                            <rect id="Rectangle-3-Copy-16" fill="#E9E9EA" transform="translate(27.958752, 19.008135) rotate(-90.000000) translate(-27.958752, -19.008135) " x="27.1886024" y="12.9255319" width="1.54029851" height="12.1652065" rx="0.770149254"></rect>
                            <rect id="Rectangle-3-Copy-17" fill="#E9E9EA" transform="translate(22.824423, 16.473717) rotate(-90.000000) translate(-22.824423, -16.473717) " x="22.0542741" y="7.85669587" width="1.54029851" height="17.2340426" rx="0.770149254"></rect>
                            <path d="M18.0164151,0.891563893 C17.8772077,0.891563893 17.8090245,0.981564034 17.8090245,1.16437682 C17.8090245,1.30218953 17.8772077,1.37109589 18.0164151,1.37109589 C18.1996575,1.37109589 18.2934094,1.30218953 18.2934094,1.16437682 C18.2934094,0.981564034 18.1996575,0.891563893 18.0164151,0.891563893 L18.0164151,0.891563893 Z M6.32299256,15.3436177 L29.9172283,15.3436177 L29.9172283,2.32875364 L27.7722978,2.32875364 L27.0805222,2.32875364 L26.1117522,2.32875364 L25.4199766,2.32875364 L24.243816,2.32875364 L23.5506199,2.32875364 L6.32299256,2.32875364 L6.32299256,15.3436177 Z M5.76900388,15.8920561 L30.4697965,15.8920561 L30.4697965,1.78172153 L5.76900388,1.78172153 L5.76900388,15.8920561 Z M4.59284331,16.9875265 L31.7169812,16.9875265 L31.7169812,1.30218953 C31.7169812,0.8001575 31.4627146,0.548438357 30.9541814,0.548438357 L5.35422262,0.548438357 C4.84568942,0.548438357 4.59284331,0.8001575 4.59284331,1.30218953 L4.59284331,16.9875265 Z M2.5871202,19.7283121 L33.3079231,19.7283121 L34.0693024,19.1798737 L1.75613718,19.1798737 L2.5871202,19.7283121 Z M35.1758593,17.7412777 C35.1758593,17.5598712 35.0821073,17.4670585 34.8988649,17.4670585 L0.994757872,17.4670585 C0.81009498,17.4670585 0.717763533,17.5598712 0.717763533,17.7412777 L0.717763533,18.4275288 C0.717763533,18.4725289 0.787367239,18.562529 0.92657465,18.7003417 L0.92657465,18.6314354 L0.994757872,18.7003417 L34.8988649,18.7003417 C35.0821073,18.7003417 35.1758593,18.6103416 35.1758593,18.4275288 L35.1758593,17.7412777 Z M35.6602442,17.7412777 L35.6602442,18.4275288 C35.6602442,18.8381544 35.4528536,19.0884673 35.0366519,19.1798737 L33.5153137,20.2064378 L33.5153137,20.2753442 L2.31012586,20.2753442 L2.31012586,20.2064378 L0.787367239,19.1798737 C0.41662097,19.0434673 0.233378562,18.7917481 0.233378562,18.4275288 L0.233378562,17.7412777 C0.233378562,17.2392457 0.486224676,16.9875265 0.994757872,16.9875265 L4.04027511,16.9875265 L4.04027511,1.30218953 C4.04027511,0.981564034 4.16669817,0.686251072 4.41954428,0.410625642 C4.6723904,0.137812715 4.98347635,0 5.35422262,0 L30.9541814,0 C31.2766313,0 31.56641,0.126562698 31.8192561,0.376875589 C32.0735227,0.628594732 32.1999457,0.936563963 32.1999457,1.30218953 L32.1999457,16.9875265 L34.8988649,16.9875265 C35.4059776,16.9875265 35.6602442,17.2392457 35.6602442,17.7412777 L35.6602442,17.7412777 Z" id="Fill-3-Copy-3" fill="#4A4A4A"></path>
                        </g>
                        <path d="M21.5314797,14.6150056 C22.5051351,15.578618 22.99119,16.7403063 22.99119,18.1031296 C22.99119,19.4636585 22.5051351,20.6253468 21.5314797,21.5889592 C20.5578243,22.5533364 19.383256,23.0343778 18.0077746,23.0343778 C16.6322932,23.0343778 15.4577248,22.5533364 14.4840695,21.5889592 C13.5111869,20.6253468 13.0243592,19.4636585 13.0243592,18.1031296 C13.0243592,16.7403063 13.5111869,15.578618 14.4840695,14.6150056 C15.4577248,13.652158 16.6322932,13.169587 18.0077746,13.169587 C19.383256,13.169587 20.5578243,13.652158 21.5314797,14.6150056 Z M27.1439074,30.3695191 C27.1439074,31.3973724 26.8286285,32.2087952 26.197298,32.8030229 C25.5651948,33.3995448 24.7259966,33.6955115 23.6789307,33.6955115 L12.3366185,33.6955115 C11.2895526,33.6955115 10.4503544,33.3995448 9.81902391,32.8030229 C9.18692067,32.2087952 8.87164179,31.3973724 8.87164179,30.3695191 C8.87164179,29.9160095 8.88709664,29.4732066 8.91723359,29.0403458 C8.94737054,28.607485 9.00764444,28.141739 9.09882804,27.6400487 C9.1892389,27.1391232 9.30437751,26.6749068 9.44269839,26.2466346 C9.58101927,25.8183624 9.76725017,25.4015618 10.0006184,24.9939385 C10.2339866,24.5878447 10.5029009,24.2414031 10.8050431,23.9538489 C11.1079581,23.6670595 11.477329,23.437628 11.9147012,23.2670839 C12.3513006,23.0965398 12.8342646,23.0101205 13.3620476,23.0101205 C13.4400946,23.0101205 13.621689,23.1026579 13.9068309,23.2862031 C14.1927456,23.4705131 14.5149792,23.6762367 14.8735316,23.9026092 C15.2328568,24.1297464 15.7003659,24.33547 16.2752862,24.51978 C16.8509793,24.7025604 17.4274451,24.7950978 18.0077746,24.7950978 C18.5873313,24.7950978 19.1645699,24.7025604 19.7402629,24.51978 C20.3151832,24.33547 20.7826924,24.1297464 21.1420175,23.9026092 C21.50057,23.6762367 21.8235763,23.4705131 22.1087182,23.2862031 C22.3946329,23.1026579 22.5762273,23.0101205 22.6542743,23.0101205 C23.1812846,23.0101205 23.6642486,23.0965398 24.100848,23.2670839 C24.5382202,23.437628 24.907591,23.6670595 25.210506,23.9538489 C25.513421,24.2414031 25.7815626,24.5878447 26.0149308,24.9939385 C26.248299,25.4015618 26.4345299,25.8183624 26.5736235,26.2466346 C26.7119444,26.6749068 26.8263103,27.1391232 26.9167211,27.6400487 C27.0079047,28.141739 27.0681786,28.607485 27.0990883,29.0403458 C27.1292253,29.4732066 27.1439074,29.9160095 27.1439074,30.3695191 Z" id="Stroke-7-Copy-4" stroke="#4A4A4A" stroke-width="0.512" fill="#FFFFFF"></path>
                        <path d="M20.6698772,8.78977669 C20.5361927,8.65823595 20.3777806,8.59170081 20.1938679,8.59170081 C20.0292738,8.59170081 19.8809072,8.65823595 19.7479955,8.78977669 C19.6143111,8.92208221 19.5478553,9.06815361 19.5478553,9.23105 C19.5478553,9.41306567 19.6143111,9.57060866 19.7479955,9.7021494 C19.8809072,9.83369014 20.0292738,9.89946051 20.1938679,9.89946051 C20.3777806,9.89946051 20.5361927,9.83369014 20.6698772,9.7021494 C20.8027888,9.57060866 20.8692447,9.41306567 20.8692447,9.23105 C20.8692447,9.06815361 20.8027888,8.92208221 20.6698772,8.78977669 L20.6698772,8.78977669 Z M18.0425532,8.78977669 C17.9196871,8.65823595 17.7659114,8.59170081 17.581226,8.59170081 C17.3973133,8.59170081 17.2435376,8.65823595 17.1206716,8.78977669 C16.9978055,8.92208221 16.9359861,9.06815361 16.9359861,9.23105 C16.9359861,9.41306567 16.9978055,9.57060866 17.1206716,9.7021494 C17.2435376,9.83369014 17.3973133,9.89946051 17.581226,9.89946051 C17.7659114,9.89946051 17.9196871,9.83369014 18.0425532,9.7021494 C18.1654192,9.57060866 18.2272386,9.41306567 18.2272386,9.23105 C18.2272386,9.06815361 18.1654192,8.92208221 18.0425532,8.78977669 L18.0425532,8.78977669 Z M15.4152292,8.78977669 C15.2815448,8.65823595 15.1331782,8.59170081 14.9701296,8.59170081 C14.7854442,8.59170081 14.627032,8.65823595 14.4933476,8.78977669 C14.3596631,8.92208221 14.29398,9.06815361 14.29398,9.23105 C14.29398,9.41306567 14.3596631,9.57060866 14.4933476,9.7021494 C14.627032,9.83369014 14.7854442,9.89946051 14.9701296,9.89946051 C15.1331782,9.89946051 15.2815448,9.83369014 15.4152292,9.7021494 C15.5489136,9.57060866 15.6145967,9.41306567 15.6145967,9.23105 C15.6145967,9.06815361 15.5489136,8.92208221 15.4152292,8.78977669 L15.4152292,8.78977669 Z M23.5815703,5.56014558 C23.5815703,5.39648442 23.4988869,5.31388907 23.3327473,5.31388907 L13.190504,5.31388907 C13.0235916,5.31388907 12.9416809,5.39648442 12.9416809,5.56014558 L12.9416809,11.7670331 C12.9416809,11.9306943 13.0235916,12.0132896 13.190504,12.0132896 L14.3905728,12.0132896 L15.9978769,12.0132896 L23.3327473,12.0132896 C23.4988869,12.0132896 23.5815703,11.9306943 23.5815703,11.7670331 L23.5815703,5.56014558 Z M24.0568069,5.56014558 L24.0568069,11.7670331 C24.0568069,11.9758158 23.9888055,12.1478895 23.8535756,12.2817245 C23.717573,12.4163244 23.543706,12.4836243 23.3327473,12.4836243 L16.1786986,12.4836243 L13.9145635,12.4836243 L13.190504,12.4836243 C12.9787726,12.4836243 12.8056783,12.4163244 12.6696756,12.2817245 C12.533673,12.1478895 12.4656716,11.9758158 12.4656716,11.7670331 L12.4656716,5.56014558 C12.4656716,5.36589355 12.533673,5.19840854 12.6696756,5.05616099 C12.8056783,4.91467822 12.9787726,4.84355444 13.190504,4.84355444 L23.3327473,4.84355444 C23.543706,4.84355444 23.717573,4.91467822 23.8535756,5.05616099 C23.9888055,5.19840854 24.0568069,5.36589355 24.0568069,5.56014558 Z" id="Fill-9" fill="#F2565B"></path>
                        <path d="M21.9972411,10.607319 C21.8372834,10.607319 21.7074627,10.4788374 21.7074627,10.3205296 L21.7074627,6.14411106 C21.7074627,5.98580331 21.8372834,5.85732165 21.9972411,5.85732165 C22.1571987,5.85732165 22.2870194,5.98580331 22.2870194,6.14411106 L22.2870194,10.3205296 C22.2870194,10.4788374 22.1571987,10.607319 21.9972411,10.607319" id="Fill-11" fill="#F2565B"></path>
                    </g>
                    <path d="M44.4868143,65.7596913 C42.3633391,66.2354135 40.151265,66.4868445 37.8785989,66.4868445 C21.7407716,66.4868445 8.65810893,53.8092279 8.65810893,38.1710362 C8.65810893,22.5344177 21.7407716,9.85522799 37.8785989,9.85522799 C54.0164262,9.85522799 67.0990889,22.5344177 67.0990889,38.1710362 C67.0990889,39.4588267 67.0103705,40.7265404 66.8385336,41.9687509 C66.9095807,41.1887227 66.9458595,40.3990274 66.9458595,39.6011276 C66.9458595,24.9121829 54.6481565,13.0014289 39.4785989,13.0014289 C24.3090413,13.0014289 12.0113383,24.9121829 12.0113383,39.6011276 C12.0113383,54.29155 24.3090413,66.2008262 39.4785989,66.2008262 C41.1890202,66.2008262 42.8629306,66.0494193 44.4868184,65.7596904 Z" id="Combined-Shape-Copy-2" fill-opacity="0.8" fill="#E8E8E7" transform="translate(37.878599, 38.171036) scale(-1, 1) rotate(-22.000000) translate(-37.878599, -38.171036) "></path>
                    <path d="M37.3707478,67.2234043 C21.2329205,67.2234043 8.15025781,54.3632979 8.15025781,38.5 C8.15025781,22.6382979 21.2329205,9.77659574 37.3707478,9.77659574 C53.5085751,9.77659574 66.5912378,22.6382979 66.5912378,38.5 C66.5912378,54.3632979 53.5085751,67.2234043 37.3707478,67.2234043 Z" id="Stroke-7-Copy-8" stroke="url(#linearGradient-1)" stroke-width="0.8"></path>
                </g>
                <path d="M77.6179921,47.0588003 L64.295962,60.3808304 C64.0341026,60.6426898 63.7231493,60.7736175 63.3630926,60.7736175 C63.0030359,60.7736175 62.6920826,60.6426898 62.4302232,60.3808304 L55.3927871,53.3433944 C55.1309277,53.081535 55,52.7705816 55,52.4105249 C55,52.0504683 55.1309277,51.7395149 55.3927871,51.4776555 L57.1930615,49.6773812 C57.4549209,49.4155218 57.7658742,49.284594 58.1259309,49.284594 C58.4859876,49.284594 58.7969409,49.4155218 59.0588003,49.6773812 L63.3630926,53.9816734 L73.9519789,43.3927871 C74.2138383,43.1309277 74.5247917,43 74.8848483,43 C75.244905,43 75.5558584,43.1309277 75.8177177,43.3927871 L77.6179921,45.1930615 C77.8798515,45.4549209 78.0107792,45.7658742 78.0107792,46.1259309 C78.0107792,46.4859876 77.8798515,46.7969409 77.6179921,47.0588003 L77.6179921,47.0588003 Z" id="Path-Copy-2" fill="url(#linearGradient-2)"></path>
            </g>
        </g>
    </g>
</svg>