<?xml version="1.0" encoding="UTF-8" standalone="no"?>
<svg width="330px" height="74px" viewBox="0 0 330 74" version="1.1" xmlns="http://www.w3.org/2000/svg" xmlns:xlink="http://www.w3.org/1999/xlink">
    <!-- Generator: Sketch 41.2 (35397) - http://www.bohemiancoding.com/sketch -->
    <title>Group 13</title>
    <desc>Created with Sketch.</desc>
    <defs>
        <linearGradient x1="100%" y1="50%" x2="3.061617e-15%" y2="50%" id="linearGradient-1">
            <stop stop-color="#FBDA61" offset="0%"></stop>
            <stop stop-color="#F76B1C" offset="100%"></stop>
        </linearGradient>
        <linearGradient x1="-1.11022302e-14%" y1="50%" x2="100%" y2="50%" id="linearGradient-2">
            <stop stop-color="#FBDA61" offset="0%"></stop>
            <stop stop-color="#F76B1C" offset="100%"></stop>
        </linearGradient>
        <polygon id="path-3" points="26.233141 26.4870329 26.233141 0.270818494 -0.00025055531 0.270818494 -0.00025055531 26.4870329 26.233141 26.4885612 1.49282117e-13 26.4870329"></polygon>
        <polygon id="path-5" points="0 0.365688944 0 5.53379834 4.56108365 5.53379834 4.56108365 0.365688944 4.80871088e-20 0.365688944"></polygon>
    </defs>
    <g id="SMP-flows" stroke="none" stroke-width="1" fill="none" fill-rule="evenodd">
        <g id="Alice_2" transform="translate(-530.000000, -178.000000)">
            <g id="Group-13" transform="translate(531.000000, 179.000000)">
                <path d="M254.218263,35.6363636 L193.476725,35.6363636" id="Stroke-13" stroke="url(#linearGradient-1)" stroke-width="1.458" stroke-linecap="round"></path>
                <path d="M135.144766,35.6363636 L74.4032283,35.6363636" id="Stroke-13-Copy" stroke="url(#linearGradient-1)" stroke-width="1.458" stroke-linecap="round" transform="translate(104.463252, 35.636364) scale(-1, 1) translate(-104.463252, -35.636364) "></path>
                <path d="M291.474388,72 C271.302103,72 254.948775,55.882 254.948775,36 C254.948775,16.12 271.302103,0 291.474388,0 C311.646672,0 328,16.12 328,36 C328,55.882 311.646672,72 291.474388,72 Z" id="Stroke-7" stroke="url(#linearGradient-2)" stroke-width="1.458" fill="#E8E8E7"></path>
                <path d="M36.5256125,72 C16.3533284,72 0,55.882 0,36 C0,16.12 16.3533284,0 36.5256125,0 C56.6978966,0 73.0512249,16.12 73.0512249,36 C73.0512249,55.882 56.6978966,72 36.5256125,72 Z" id="Stroke-7-Copy-2" stroke="url(#linearGradient-2)" stroke-width="1.458" fill="#E8E8E7" transform="translate(36.525612, 36.000000) scale(-1, 1) translate(-36.525612, -36.000000) "></path>
                <path d="M290.013363,69.8181818 C271.051416,69.8181818 255.679287,54.6770303 255.679287,36 C255.679287,17.3248485 271.051416,2.18181818 290.013363,2.18181818 C308.97531,2.18181818 324.347439,17.3248485 324.347439,36 C324.347439,54.6770303 308.97531,69.8181818 290.013363,69.8181818 Z" id="Stroke-7-Copy" fill="#FFFFFF"></path>
                <path d="M37.986637,69.8181818 C19.0246899,69.8181818 3.65256125,54.6770303 3.65256125,36 C3.65256125,17.3248485 19.0246899,2.18181818 37.986637,2.18181818 C56.948584,2.18181818 72.3207127,17.3248485 72.3207127,36 C72.3207127,54.6770303 56.948584,69.8181818 37.986637,69.8181818 Z" id="Stroke-7-Copy-3" fill="#FFFFFF" transform="translate(37.986637, 36.000000) scale(-1, 1) translate(-37.986637, -36.000000) "></path>
                <rect id="Rectangle-3" fill="#E9E9EA" x="310.467706" y="21.8181818" width="2.19153675" height="24.7272727" rx="1.09576837"></rect>
                <rect id="Rectangle-3-Copy-9" fill="#E9E9EA" x="18.9933185" y="20.3636364" width="2.19153675" height="24.7272727" rx="1.09576837"></rect>
                <rect id="Rectangle-3-Copy" fill="#E9E9EA" transform="translate(305.354120, 47.636364) rotate(-90.000000) translate(-305.354120, -47.636364) " x="304.258352" y="35.2727273" width="2.19153675" height="24.7272727" rx="1.09576837"></rect>
                <rect id="Rectangle-3-Copy-10" fill="#E9E9EA" transform="translate(25.567929, 46.181818) rotate(-90.000000) translate(-25.567929, -46.181818) " x="24.4721604" y="33.8181818" width="2.19153675" height="24.7272727" rx="1.09576837"></rect>
                <rect id="Rectangle-3-Copy-7" fill="#E9E9EA" transform="translate(306.815145, 49.090909) rotate(-90.000000) translate(-306.815145, -49.090909) " x="305.719376" y="40.3636364" width="2.19153675" height="17.4545455" rx="1.09576837"></rect>
                <rect id="Rectangle-3-Copy-11" fill="#E9E9EA" transform="translate(23.376392, 47.636364) rotate(-90.000000) translate(-23.376392, -47.636364) " x="22.2806236" y="38.9090909" width="2.19153675" height="17.4545455" rx="1.09576837"></rect>
                <rect id="Rectangle-3-Copy-6" fill="#E9E9EA" transform="translate(299.510022, 45.454545) rotate(-90.000000) translate(-299.510022, -45.454545) " x="298.414254" y="33.0909091" width="2.19153675" height="24.7272727" rx="1.09576837"></rect>
                <rect id="Rectangle-3-Copy-12" fill="#E9E9EA" transform="translate(30.681514, 44.000000) rotate(-90.000000) translate(-30.681514, -44.000000) " x="29.5857461" y="31.6363636" width="2.19153675" height="24.7272727" rx="1.09576837"></rect>
                <rect id="Rectangle-3-Copy-8" fill="#E9E9EA" transform="translate(306.084633, 23.636364) rotate(-90.000000) translate(-306.084633, -23.636364) " x="304.988864" y="17.8181818" width="2.19153675" height="11.6363636" rx="1.09576837"></rect>
                <rect id="Rectangle-3-Copy-13" fill="#E9E9EA" transform="translate(24.837416, 22.181818) rotate(-90.000000) translate(-24.837416, -22.181818) " x="23.7416481" y="16.3636364" width="2.19153675" height="11.6363636" rx="1.09576837"></rect>
                <path d="M292.669188,23.0973909 C292.471124,23.0973909 292.374113,23.2265224 292.374113,23.4888208 C292.374113,23.6865534 292.471124,23.7854197 292.669188,23.7854197 C292.929905,23.7854197 293.063296,23.6865534 293.063296,23.4888208 C293.063296,23.2265224 292.929905,23.0973909 292.669188,23.0973909 L292.669188,23.0973909 Z M276.031786,43.8330874 L309.601665,43.8330874 L309.601665,25.1594598 L306.549858,25.1594598 L305.5656,25.1594598 L304.187234,25.1594598 L303.202976,25.1594598 L301.529534,25.1594598 L300.543255,25.1594598 L276.031786,25.1594598 L276.031786,43.8330874 Z M275.243571,44.6199826 L310.387859,44.6199826 L310.387859,24.3745823 L275.243571,24.3745823 L275.243571,44.6199826 Z M273.57013,46.1917553 L312.162354,46.1917553 L312.162354,23.6865534 C312.162354,22.9662417 311.800583,22.605077 311.077042,22.605077 L274.65342,22.605077 C273.929879,22.605077 273.57013,22.9662417 273.57013,23.6865534 L273.57013,46.1917553 Z M270.716387,50.1242134 L314.425946,50.1242134 L315.509236,49.3373183 L269.534064,49.3373183 L270.716387,50.1242134 Z M317.083646,47.2732317 C317.083646,47.012951 316.950255,46.8797841 316.689538,46.8797841 L268.450774,46.8797841 C268.188035,46.8797841 268.056666,47.012951 268.056666,47.2732317 L268.056666,48.2578595 C268.056666,48.3224253 268.155698,48.4515568 268.353763,48.6492894 L268.353763,48.5504231 L268.450774,48.6492894 L316.689538,48.6492894 C316.950255,48.6492894 317.083646,48.5201579 317.083646,48.2578595 L317.083646,47.2732317 Z M317.772829,47.2732317 L317.772829,48.2578595 C317.772829,48.847022 317.477753,49.2061691 316.885581,49.3373183 L314.721021,50.8102246 L314.721021,50.9090909 L270.322279,50.9090909 L270.322279,50.8102246 L268.155698,49.3373183 C267.628201,49.1416033 267.367483,48.7804386 267.367483,48.2578595 L267.367483,47.2732317 C267.367483,46.55292 267.727233,46.1917553 268.450774,46.1917553 L272.783936,46.1917553 L272.783936,23.6865534 C272.783936,23.2265224 272.963811,22.8028096 273.32356,22.4073444 C273.683309,22.0159145 274.125923,21.8181818 274.65342,21.8181818 L311.077042,21.8181818 C311.535824,21.8181818 311.948121,21.999773 312.30787,22.35892 C312.669641,22.7200847 312.849516,23.1619566 312.849516,23.6865534 L312.849516,46.1917553 L316.689538,46.1917553 C317.411058,46.1917553 317.772829,46.55292 317.772829,47.2732317 L317.772829,47.2732317 Z" id="Fill-3" fill="#000000"></path>
                <path d="M38.4509252,21.6428454 C38.2528609,21.6428454 38.1558499,21.7719769 38.1558499,22.0342753 C38.1558499,22.232008 38.2528609,22.3308743 38.4509252,22.3308743 C38.7116426,22.3308743 38.8450328,22.232008 38.8450328,22.0342753 C38.8450328,21.7719769 38.7116426,21.6428454 38.4509252,21.6428454 L38.4509252,21.6428454 Z M21.8135234,42.378542 L55.3834025,42.378542 L55.3834025,23.7049143 L52.3315953,23.7049143 L51.3473369,23.7049143 L49.9689711,23.7049143 L48.9847127,23.7049143 L47.3112714,23.7049143 L46.324992,23.7049143 L21.8135234,23.7049143 L21.8135234,42.378542 Z M21.0253083,43.1654371 L56.1695965,43.1654371 L56.1695965,22.9200368 L21.0253083,22.9200368 L21.0253083,43.1654371 Z M19.351867,44.7372098 L57.944091,44.7372098 L57.944091,22.232008 C57.944091,21.5116962 57.5823205,21.1505315 56.8587795,21.1505315 L20.4351575,21.1505315 C19.7116165,21.1505315 19.351867,21.5116962 19.351867,22.232008 L19.351867,44.7372098 Z M16.4981241,48.669668 L60.2076831,48.669668 L61.2909736,47.8827728 L15.3158015,47.8827728 L16.4981241,48.669668 Z M62.8653828,45.8186862 C62.8653828,45.5584055 62.7319925,45.4252387 62.4712752,45.4252387 L14.232511,45.4252387 C13.9697726,45.4252387 13.8384034,45.5584055 13.8384034,45.8186862 L13.8384034,46.803314 C13.8384034,46.8678798 13.9374356,46.9970113 14.1354999,47.1947439 L14.1354999,47.0958776 L14.232511,47.1947439 L62.4712752,47.1947439 C62.7319925,47.1947439 62.8653828,47.0656124 62.8653828,46.803314 L62.8653828,45.8186862 Z M63.5545657,45.8186862 L63.5545657,46.803314 C63.5545657,47.3924766 63.2594903,47.7516236 62.6673184,47.8827728 L60.5027585,49.3556791 L60.5027585,49.4545455 L16.1040166,49.4545455 L16.1040166,49.3556791 L13.9374356,47.8827728 C13.4099378,47.6870578 13.1492205,47.3258931 13.1492205,46.803314 L13.1492205,45.8186862 C13.1492205,45.0983745 13.5089699,44.7372098 14.232511,44.7372098 L18.565673,44.7372098 L18.565673,22.232008 C18.565673,21.7719769 18.7455477,21.3482642 19.1052972,20.9527989 C19.4650466,20.561369 19.9076597,20.3636364 20.4351575,20.3636364 L56.8587795,20.3636364 C57.3175611,20.3636364 57.7298582,20.5452276 58.0896077,20.9043746 C58.4513782,21.2655393 58.6312529,21.7074112 58.6312529,22.232008 L58.6312529,44.7372098 L62.4712752,44.7372098 C63.1927952,44.7372098 63.5545657,45.0983745 63.5545657,45.8186862 L63.5545657,45.8186862 Z" id="Fill-3-Copy" fill="#000000"></path>
                <path d="M164,63.2727273 C148.87163,63.2727273 136.605791,51.0612822 136.605791,35.9978573 C136.605791,20.9365751 148.87163,8.72727273 164,8.72727273 C179.12837,8.72727273 191.394209,20.9365751 191.394209,35.9978573 C191.394209,51.0612822 179.12837,63.2727273 164,63.2727273 Z" id="Stroke-11" stroke="#F36F45" stroke-width="1.458" stroke-linecap="round" stroke-linejoin="bevel" stroke-dasharray="8.748000240325927"></path>
                <g id="tio" transform="translate(141.719376, 15.272727)">
                    <g id="Group-3" transform="translate(0.000000, 0.745323)">
                        <mask id="mask-4" fill="white">
                            <use xlink:href="#path-3"></use>
                        </mask>
                        <g id="Clip-2"></g>
                        <path d="M5.47939407,8.68435873 C6.05066018,8.75058702 11.4426105,9.38230303 14.0358579,9.38230303 C16.7593941,9.38230303 22.0561334,8.68435873 22.10875,8.67671701 C22.2064666,8.6639808 22.2966665,8.68945322 22.3743386,8.73785081 C24.7521085,8.16472137 24.7821752,7.64763125 24.7821752,7.62215883 C24.6844586,7.53809984 24.0254981,7.46422983 23.4442098,7.40054878 C22.8103049,7.329226 22.0210556,7.24261978 21.048901,7.05921835 C20.8985679,7.03374593 20.7783013,6.92166729 20.7332013,6.77392725 C20.6730681,6.57014789 20.6054181,6.30014024 20.527746,5.99701845 C20.3348184,5.2353931 20.0692298,4.19357113 19.7660579,3.60261099 C19.3401138,2.77475735 18.901642,2.1099272 18.4631702,1.63104571 C18.1274261,1.27188459 17.7440765,1.09357765 17.2880658,1.09357765 C17.0675772,1.09357765 16.6416331,1.18273112 15.8498784,1.60812053 C15.0906958,2.01567925 14.4968797,2.21436412 14.0358579,2.21436412 C13.5723306,2.21436412 12.9785145,2.01567925 12.2193319,1.60812053 C11.4300827,1.18273112 11.0016331,1.09357765 10.78365,1.09357765 C10.3276393,1.09357765 9.94178415,1.27188459 9.60353448,1.63359295 C9.16506268,2.11247444 8.72659089,2.77475735 8.30315242,3.60261099 C7.99998049,4.19611837 7.73439186,5.24048758 7.53895872,6.00466018 C7.46379213,6.30268749 7.3961422,6.57014789 7.33600892,6.77392725 C7.29341452,6.92166729 7.17064242,7.03374593 7.02281478,7.05921835 C6.05066018,7.24261978 5.26141095,7.329226 4.62750602,7.40054878 C4.04371215,7.46422983 3.38725724,7.53809984 3.27200179,7.65017849 C3.28452956,7.65017849 3.31710175,8.13160722 5.47939407,8.68435873 M25.3584524,18.3103862 C24.8247696,17.5997056 24.1733258,17.0545959 23.4241654,16.6903403 C23.2312378,16.5935451 23.146049,16.3693878 23.2237211,16.1681557 L24.5917531,12.6631507 L21.0438899,12.6631507 C20.9110956,12.6631507 20.785818,12.5969224 20.7131569,12.4848438 C20.6354848,12.3753124 20.6179459,12.235214 20.6655514,12.1078519 C20.9612067,11.297829 21.0889899,10.4699754 21.0463955,9.63957447 C19.3075416,9.84844831 16.0428059,10.2050622 14.0358579,10.2050622 C12.1642097,10.2050622 8.9721351,9.89684591 7.01529812,9.68542483 C7.00778147,9.78222002 7.00527591,9.86627901 7.00527591,9.93505454 C7.00527591,10.655924 7.14057578,11.3869825 7.40616441,12.1078519 C7.45126436,12.235214 7.43372549,12.3753124 7.3585589,12.4848438 C7.28339231,12.5969224 7.15811465,12.6631507 7.02532034,12.6631507 L3.50501823,12.6631507 L4.99582233,16.0611715 C5.08602224,16.2674981 4.99582233,16.5069388 4.79287253,16.6011868 C4.1639787,16.8890251 3.60022925,17.3093201 3.11415195,17.8518826 C2.62306354,18.3995396 2.23219726,18.9955942 1.95408086,19.6171213 C1.66844781,20.2488373 1.43292582,20.972254 1.25252599,21.7695408 C1.07212617,22.5668275 0.951859623,23.3106221 0.894231901,23.9805468 C0.83660418,24.6530187 0.809043096,25.3586047 0.809043096,26.0769269 C0.809043096,26.3036315 0.628643273,26.4870329 0.405649047,26.4870329 C0.180149268,26.4870329 -0.00025055531,26.3036315 -0.00025055531,26.0769269 C-0.00025055531,25.3356795 0.0298160819,24.6071683 0.0874438032,23.9117712 C0.150082631,23.2010907 0.275360286,22.4216347 0.465782321,21.5835921 C0.65870991,20.7328133 0.90926522,19.9584517 1.21744825,19.2732436 C1.53064239,18.5752993 1.96660863,17.9104692 2.51532476,17.2965838 C2.98135763,16.7769465 3.51253489,16.3541043 4.09632876,16.0331518 L2.5128192,12.4186155 C2.45769704,12.2912534 2.46771925,12.1435133 2.54288584,12.0263402 C2.61805243,11.9117143 2.74583564,11.8403915 2.88364106,11.8403915 L6.466582,11.8403915 C6.28618217,11.2061283 6.19598226,10.5693178 6.19598226,9.93505454 C6.19598226,9.86627901 6.19848781,9.78476726 6.20349892,9.69306655 C5.89030478,9.62683826 5.59966062,9.56315721 5.32655534,9.49183444 C5.29899425,9.4892872 5.26892761,9.48164547 5.24136653,9.4714565 C3.34215728,8.98238604 2.47774146,8.39906763 2.47774146,7.62215883 C2.47774146,6.81213588 3.29705732,6.72043517 4.53981166,6.5828841 C5.10356111,6.51920305 5.79509377,6.4427858 6.62693739,6.297593 C6.66702624,6.14730573 6.70962065,5.97918776 6.75722616,5.79833358 C6.97019817,4.95264924 7.23829235,3.90063831 7.58656423,3.2205247 C8.0425749,2.33153725 8.52364109,1.60557329 9.0147295,1.07065247 C9.50832346,0.540826143 10.1021395,0.270818494 10.78365,0.270818494 C11.2396607,0.270818494 11.8334767,0.469503368 12.5976704,0.882156567 C13.3819086,1.30245149 13.8128637,1.39160496 14.0358579,1.39160496 C14.2563466,1.39160496 14.6873017,1.30245149 15.4715398,0.882156567 C16.2357335,0.469503368 16.8295496,0.270818494 17.2880658,0.270818494 C17.9670707,0.270818494 18.5608868,0.540826143 19.0519752,1.07065247 C19.5430636,1.60557329 20.0241298,2.32899001 20.482646,3.22307194 C20.8309179,3.89809106 21.0965065,4.94755476 21.3119841,5.79323909 C21.3570841,5.97664051 21.402184,6.14475848 21.4422729,6.297593 C22.2741165,6.4427858 22.9656492,6.51920305 23.5319042,6.5828841 C24.7721529,6.72043517 25.5914688,6.81213588 25.5914688,7.62215883 C25.5914688,8.52133525 24.4364088,9.16069298 21.8581947,9.69306655 C21.8857558,10.4164833 21.800567,11.1322583 21.6026283,11.8403915 L25.1880748,11.8403915 C25.3208691,11.8403915 25.4461467,11.9091671 25.5238189,12.0212457 C25.5964799,12.1333244 25.6140188,12.2759699 25.5639077,12.403332 L24.1106869,16.1248525 C24.8347918,16.5375057 25.4712023,17.1055407 26.0023795,17.8111267 C26.6062178,18.6186024 25.8996518,19.0338029 25.3584524,18.3103862" id="Fill-1" fill="#4D4D4D" mask="url(#mask-4)"></path>
                    </g>
                    <path d="M19.6109641,11.0489635 C19.583403,11.0005659 19.5583475,10.9674517 19.533292,10.9419793 C19.4030032,10.8451841 18.7841316,10.7967865 17.6741716,10.7967865 C16.7721725,10.7967865 15.6947846,10.9114124 14.4420081,11.1406642 C14.3518082,11.1661366 14.2165083,11.1763256 14.0336029,11.1763256 C13.8532031,11.1763256 13.7179032,11.1661366 13.6277033,11.1406642 C12.3749268,10.9114124 11.2975389,10.7967865 10.3955398,10.7967865 C9.28307424,10.7967865 8.66420262,10.8451841 8.53641941,10.9419793 C8.50885833,10.9674517 8.48630835,11.0005659 8.45874727,11.0489635 C8.48630835,11.265479 8.50885833,11.4285025 8.53641941,11.5380339 C8.56147494,11.5736953 8.60908045,11.6144512 8.68174149,11.655207 C8.75189698,11.6985102 8.80200804,11.7621912 8.82706357,11.8462502 C8.8521191,11.8946478 8.89972461,12.0169154 8.97238565,12.2156003 C9.04254114,12.4142852 9.08764109,12.5391 9.10768552,12.5874976 C9.12772994,12.633348 9.17533545,12.7377849 9.2530076,12.8931666 C9.33067974,13.0510956 9.38329636,13.1529853 9.4183741,13.2013829 C9.44844074,13.2472333 9.50857401,13.3312923 9.59125727,13.4535599 C9.67644607,13.5758275 9.75161267,13.654792 9.82427371,13.6980951 C9.89442919,13.7413982 9.9846291,13.7974375 10.0948734,13.8687603 C10.2051178,13.9426303 10.3178677,13.9910279 10.4331231,14.0165004 C10.5508841,14.0394255 10.6836784,14.064898 10.8315061,14.0852759 C10.9793337,14.1107483 11.1371835,14.1234845 11.3050556,14.1234845 C11.7710885,14.1234845 12.149427,14.0470673 12.4475878,13.89678 C12.7432431,13.7490399 12.9537095,13.5630913 13.0764816,13.3542174 C13.1992537,13.1427964 13.2919592,12.9364698 13.3571036,12.7326904 C13.422248,12.5263638 13.494909,12.3506041 13.5800978,12.1952223 C13.6627811,12.0474823 13.7755309,11.9710651 13.9183475,11.9710651 L14.1513639,11.9710651 C14.2916749,11.9710651 14.4044248,12.0474823 14.4896136,12.1952223 C14.5748024,12.3506041 14.6474634,12.5263638 14.7126078,12.7326904 C14.7777522,12.9364698 14.8704576,13.1427964 14.9932298,13.3542174 C15.1160019,13.5630913 15.3264683,13.7490399 15.6221236,13.89678 C15.9177788,14.0470673 16.3011285,14.1234845 16.7646558,14.1234845 C16.9325279,14.1234845 17.0903777,14.1107483 17.2382053,14.0852759 C17.386033,14.064898 17.5213328,14.0394255 17.6340827,14.0165004 C17.7518437,13.9910279 17.8645936,13.9426303 17.9748379,13.8687603 C18.0850823,13.7974375 18.1752822,13.7413982 18.2454377,13.6980951 C18.3155932,13.654792 18.3932653,13.5758275 18.4784541,13.4535599 C18.5611374,13.3312923 18.6187651,13.2472333 18.6513373,13.2013829 C18.6839095,13.1529853 18.7390316,13.0510956 18.8167038,12.8931666 C18.8943759,12.7377849 18.9419814,12.633348 18.9620259,12.5874976 C18.9820703,12.5391 19.0271702,12.4142852 19.0973257,12.2156003 C19.1699868,12.0169154 19.2175923,11.8946478 19.2426478,11.8462502 C19.2677033,11.7621912 19.3178144,11.6985102 19.3879699,11.655207 C19.4581254,11.6144512 19.5082364,11.5736953 19.533292,11.5380339 C19.5583475,11.4285025 19.583403,11.265479 19.6109641,11.0489635" id="Fill-4" fill="#4D4D4D"></path>
                </g>
                <g id="camera" transform="translate(161.443207, 28.363636)">
                    <g id="Group-3" transform="translate(0.000000, 9.643153)">
                        <mask id="mask-6" fill="white">
                            <use xlink:href="#path-5"></use>
                        </mask>
                        <g id="Clip-2"></g>
                        <path d="M0.757008972,2.0985019 L2.05387693,4.74089478 L3.80491479,3.79943787 L2.50627273,1.15704498 L0.757008972,2.0985019 Z M1.91549704,5.53379834 C1.79840636,5.53379834 1.68486389,5.46509241 1.62986675,5.34996356 L0.0349497932,2.10592957 C-0.00408043271,2.02608213 -0.0111768374,1.93323628 0.0154346802,1.8478181 C0.0420461979,1.76239992 0.0988174356,1.69183708 0.175103786,1.6509849 L2.49740223,0.401279763 C2.65707133,0.319575415 2.85222246,0.382710593 2.93205702,0.547976206 L4.52697397,3.7920102 C4.5642301,3.87000071 4.5713265,3.96470348 4.54648909,4.04826474 C4.51987757,4.13553984 4.46310633,4.20610269 4.38681998,4.24509794 L2.06274744,5.49666 C2.01484671,5.52079992 1.96517187,5.53379834 1.91549704,5.53379834 L1.91549704,5.53379834 Z" id="Fill-1" fill="#4D4D4D" mask="url(#mask-6)"></path>
                    </g>
                    <g id="Group-6" transform="translate(1.774101, 0.358568)" fill="#4D4D4D">
                        <path d="M1.28977156,8.07907447 L4.18155647,13.9655013 L10.0893134,10.7827456 C10.2489825,10.7010413 10.4423595,10.7641764 10.5239682,10.9294421 L11.5990735,13.1150334 C11.7463239,12.9906199 11.9006707,12.8847757 12.063888,12.7975006 C12.221783,12.7120824 12.3938708,12.6433764 12.5748291,12.5895258 L11.503272,10.4039345 C11.4198893,10.2386689 11.4837569,10.036265 11.6416519,9.9508468 L17.5511829,6.76809107 L14.6576239,0.883521107 L1.28977156,8.07907447 Z M4.04140248,14.756548 C4.00946866,14.756548 3.97576074,14.7528342 3.94382692,14.7416926 C3.86221826,14.711982 3.79480242,14.6525606 3.75577219,14.5727132 L0.569486478,8.08650213 C0.487877824,7.92123652 0.549971365,7.71883257 0.70786637,7.63341439 L14.6505275,0.129612806 C14.8084225,0.0460515415 15.0017996,0.109186719 15.0834082,0.274452332 L18.271468,6.75880648 C18.3530767,6.92407209 18.2909831,7.12647605 18.131314,7.21375115 L12.2235571,10.3965069 L13.343015,12.6768009 C13.3909157,12.7733606 13.3909157,12.8903464 13.3412409,12.988763 C13.2933401,13.0853227 13.202861,13.1503148 13.0999631,13.1651701 C12.8232033,13.2023085 12.573055,13.2821559 12.3566147,13.3991417 C12.1366262,13.5161274 11.9361527,13.6795361 11.7410016,13.8949385 C11.6700375,13.9747859 11.5564951,14.0026397 11.4606936,13.9989258 C11.3577957,13.9840705 11.2673166,13.9172215 11.2194158,13.8188049 L10.0981839,11.5366539 L4.18865288,14.7194096 C4.14252625,14.7435496 4.09285142,14.756548 4.04140248,14.756548 L4.04140248,14.756548 Z" id="Fill-4"></path>
                    </g>
                    <path d="M22.4672173,20.110408 L23.5653859,20.110408 L23.5653859,11.6688633 L22.4672173,11.6688633 L22.4672173,14.9778894 C22.4672173,15.1635811 22.3235151,15.3158483 22.1443309,15.3158483 L18.0497054,15.3158483 C18.1188953,15.6946594 18.1206694,16.0864689 18.0532536,16.463423 L22.1443309,16.463423 C22.3235151,16.463423 22.4672173,16.6156902 22.4672173,16.8013819 L22.4672173,20.110408 Z M23.8882724,20.7844689 L22.1443309,20.7844689 C21.9669208,20.7844689 21.8232186,20.6322017 21.8232186,20.4483669 L21.8232186,17.1374839 L17.6327916,17.1374839 C17.5281196,17.1374839 17.4305441,17.0854902 17.3702246,16.9963582 C17.3099052,16.9053693 17.2939383,16.7920973 17.3294203,16.68811 C17.5050563,16.1718871 17.5032822,15.6166689 17.324098,15.0911614 C17.2903901,14.987174 17.3045829,14.8739021 17.3649023,14.7829131 C17.4252218,14.6937811 17.5245714,14.6417875 17.6274693,14.6417875 L21.8232186,14.6417875 L21.8232186,11.3309045 C21.8232186,11.1452128 21.9669208,10.9948025 22.1443309,10.9948025 L23.8882724,10.9948025 C24.0656825,10.9948025 24.2093847,11.1452128 24.2093847,11.3309045 L24.2093847,20.4483669 C24.2093847,20.6322017 24.0656825,20.7844689 23.8882724,20.7844689 L23.8882724,20.7844689 Z" id="Fill-7" fill="#4D4D4D"></path>
                    <path d="M15.1664361,14.4109727 C14.9375771,14.4109727 14.7229108,14.4629664 14.5295338,14.5706675 C14.3113194,14.6857964 14.1303611,14.8603466 13.988433,15.0924612 C13.7152214,15.5399782 13.6868358,16.104481 13.9139207,16.5687102 C14.2740633,17.2966217 15.1309541,17.5863007 15.8264018,17.2093466 C16.0659054,17.0793624 16.2646048,16.8806723 16.3994365,16.6337023 C16.6460365,16.193613 16.6620034,15.6662486 16.443789,15.2187316 C16.4349185,15.2038762 16.4012106,15.1518826 16.3976624,15.1463118 C16.1599328,14.7155071 15.7288262,14.4406833 15.2480448,14.4146865 C15.2214333,14.4128296 15.1930477,14.4109727 15.1664361,14.4109727 M15.180629,18.05053 C14.4301842,18.05053 13.7063509,17.6215822 13.340886,16.8769584 C13.007355,16.2010407 13.0481593,15.3784264 13.445558,14.7285055 C13.6495796,14.3961173 13.9139207,14.1398628 14.235033,13.9690264 C14.5490489,13.7981901 14.9145138,13.7294841 15.2817527,13.7406256 C15.9825227,13.777764 16.6070063,14.1788581 16.9565042,14.8102098 C16.9777934,14.8399205 16.9973086,14.8696312 17.0132755,14.8993418 L17.0132755,14.9030557 C17.3361619,15.5566905 17.3148727,16.3310248 16.9582783,16.9716612 C16.7613531,17.3300462 16.4721746,17.6215822 16.1226767,17.8109877 C15.8210795,17.9725395 15.4981931,18.05053 15.180629,18.05053" id="Fill-9" fill="#4D4D4D"></path>
                </g>
                <rect id="Rectangle-4" fill="#FFEDCF" x="76.7037862" y="21.8181818" width="8.03563474" height="8"></rect>
                <rect id="Rectangle-4-Copy-3" fill="#FFD28A" x="80.3563474" y="41.4545455" width="5.844098" height="5.81818182"></rect>
                <rect id="Rectangle-4-Copy" fill="#F9CC85" x="92.0445434" y="27.6363636" width="4.3830735" height="4.36363636"></rect>
                <rect id="Rectangle-4-Copy-10" fill="#F36F45" x="200.160356" y="27.6363636" width="4.3830735" height="4.36363636"></rect>
                <rect id="Rectangle-4-Copy-4" fill="#F8C8BC" x="113.229399" y="37.0909091" width="2.922049" height="2.90909091"></rect>
                <rect id="Rectangle-4-Copy-6" fill="#F8C8BC" x="106.654788" y="30.5454545" width="2.19153675" height="2.18181818"></rect>
                <rect id="Rectangle-4-Copy-17" fill="#F8C8BC" x="238.146993" y="37.8181818" width="2.19153675" height="2.18181818"></rect>
                <rect id="Rectangle-4-Copy-12" fill="#F8C8BC" x="227.18931" y="31.2727273" width="2.19153675" height="2.18181818"></rect>
                <rect id="Rectangle-4-Copy-8" fill="#F78D73" x="195.777283" y="37.8181818" width="2.922049" height="2.90909091"></rect>
                <rect id="Rectangle-4-Copy-5" fill="#F8C8BC" x="97.8886414" y="40" width="3.65256125" height="3.63636364"></rect>
                <rect id="Rectangle-4-Copy-11" fill="#F8C8BC" x="218.423163" y="37.0909091" width="3.65256125" height="3.63636364"></rect>
                <rect id="Rectangle-4-Copy-15" fill="#F8C8BC" x="209.657016" y="30.5454545" width="3.65256125" height="3.63636364"></rect>
                <rect id="Rectangle-4-Copy-14" fill="#F8C8BC" x="100.81069" y="25.4545455" width="2.19153675" height="2.18181818"></rect>
            </g>
        </g>
    </g>
</svg>