<?xml version="1.0" encoding="UTF-8" standalone="no"?>
<svg width="86px" height="72px" viewBox="0 0 86 72" version="1.1" xmlns="http://www.w3.org/2000/svg" xmlns:xlink="http://www.w3.org/1999/xlink">
    <!-- Generator: Sketch 41.2 (35397) - http://www.bohemiancoding.com/sketch -->
    <title>Group 3 Copy</title>
    <desc>Created with Sketch.</desc>
    <defs>
        <linearGradient x1="-1.11022302e-14%" y1="50%" x2="100%" y2="50%" id="linearGradient-1">
            <stop stop-color="#FBDA61" offset="0%"></stop>
            <stop stop-color="#F76B1C" offset="100%"></stop>
        </linearGradient>
        <linearGradient x1="100%" y1="50%" x2="2.30986926%" y2="50%" id="linearGradient-2">
            <stop stop-color="#5BEDAC" offset="0%"></stop>
            <stop stop-color="#2DAB49" offset="100%"></stop>
        </linearGradient>
    </defs>
    <g id="SMP-flows" stroke="none" stroke-width="1" fill="none" fill-rule="evenodd">
        <g id="Bob_3" transform="translate(-839.000000, -219.000000)">
            <g id="Group-3-Copy" transform="translate(829.000000, 209.000000)">
                <g id="Group" transform="translate(0.393958, 0.000000)">
                    <g id="Group-2" transform="translate(23.574684, 26.584966)">
                        <g id="computer" transform="translate(0.175930, 0.344592)">
                            <rect id="Rectangle-5" fill="#FFFFFF" x="7.56501039" y="2.48106185" width="29.629624" height="16.1784885"></rect>
                            <rect id="Rectangle-3-Copy-14" fill="#E9E9EA" x="37.4811878" y="0" width="1.8912526" height="21.0890258" rx="0.945626299"></rect>
                            <rect id="Rectangle-3-Copy-15" fill="#E9E9EA" transform="translate(33.068265, 22.019424) rotate(-90.000000) translate(-33.068265, -22.019424) " x="32.1226388" y="11.4749111" width="1.8912526" height="21.0890258" rx="0.945626299"></rect>
                            <rect id="Rectangle-3-Copy-16" fill="#E9E9EA" transform="translate(34.329100, 23.259955) rotate(-90.000000) translate(-34.329100, -23.259955) " x="33.3834739" y="15.8167693" width="1.8912526" height="14.8863711" rx="0.945626299"></rect>
                            <rect id="Rectangle-3-Copy-17" fill="#E9E9EA" transform="translate(28.024925, 20.158628) rotate(-90.000000) translate(-28.024925, -20.158628) " x="27.0792986" y="9.61411468" width="1.8912526" height="21.0890258" rx="0.945626299"></rect>
                            <path d="M22.1214211,1.09099266 C21.9504955,1.09099266 21.8667769,1.20112441 21.8667769,1.42482953 C21.8667769,1.59346877 21.9504955,1.67778839 22.1214211,1.67778839 C22.3464149,1.67778839 22.461528,1.59346877 22.461528,1.42482953 C22.461528,1.20112441 22.3464149,1.09099266 22.1214211,1.09099266 L22.1214211,1.09099266 Z M7.76367441,18.7757427 L36.7338119,18.7757427 L36.7338119,2.84965906 L34.1001631,2.84965906 L33.2507677,2.84965906 L32.0612654,2.84965906 L31.21187,2.84965906 L29.7677235,2.84965906 L28.916584,2.84965906 L7.76367441,2.84965906 L7.76367441,18.7757427 Z M7.08346046,19.4468581 L37.4122817,19.4468581 L37.4122817,2.18026451 L7.08346046,2.18026451 L7.08346046,19.4468581 Z M5.63931393,20.787368 L38.9436352,20.787368 L38.9436352,1.59346877 C38.9436352,0.979140099 38.6314344,0.671115358 38.0070329,0.671115358 L6.57417207,0.671115358 C5.94977056,0.671115358 5.63931393,0.979140099 5.63931393,1.59346877 L5.63931393,20.787368 Z M3.17659062,24.141224 L40.8970701,24.141224 L41.8319283,23.4701086 L2.15626971,23.4701086 L3.17659062,24.141224 Z M43.190612,21.7097214 C43.190612,21.4877371 43.0754989,21.3741637 42.850505,21.3741637 L1.22141156,21.3741637 C0.994673583,21.3741637 0.881304592,21.4877371 0.881304592,21.7097214 L0.881304592,22.549476 C0.881304592,22.6045419 0.966767369,22.7146736 1.13769293,22.8833129 L1.13769293,22.7989933 L1.22141156,22.8833129 L42.850505,22.8833129 C43.0754989,22.8833129 43.190612,22.7731811 43.190612,22.549476 L43.190612,21.7097214 Z M43.7853632,21.7097214 L43.7853632,22.549476 C43.7853632,23.0519521 43.530719,23.3582561 43.0196864,23.4701086 L41.1517143,24.7262989 L41.1517143,24.8106185 L2.83648365,24.8106185 L2.83648365,24.7262989 L0.966767369,23.4701086 C0.511547267,23.3031902 0.286553424,22.9951655 0.286553424,22.549476 L0.286553424,21.7097214 C0.286553424,21.0953927 0.597010045,20.787368 1.22141156,20.787368 L4.96084413,20.787368 L4.96084413,1.59346877 C4.96084413,1.20112441 5.11607244,0.839754602 5.42652906,0.502476114 C5.73698568,0.168639244 6.11895197,0 6.57417207,0 L38.0070329,0 C38.4029523,0 38.7587565,0.154872775 39.0692132,0.461176707 C39.3814139,0.769201449 39.5366422,1.14605853 39.5366422,1.59346877 L39.5366422,20.787368 L42.850505,20.787368 C43.4731624,20.787368 43.7853632,21.0953927 43.7853632,21.7097214 L43.7853632,21.7097214 Z" id="Fill-3-Copy-3" fill="#4A4A4A"></path>
                        </g>
                        <path d="M26.4373865,17.8841516 C27.6328873,19.0633089 28.229689,20.4848485 28.229689,22.1525138 C28.229689,23.8173716 27.6328873,25.2389112 26.4373865,26.4180685 C25.2418856,27.5981617 23.799694,28.1868045 22.1108118,28.1868045 C20.4219296,28.1868045 18.9797381,27.5981617 17.7842372,26.4180685 C16.5896851,25.2389112 15.9919347,23.8173716 15.9919347,22.1525138 C15.9919347,20.4848485 16.5896851,19.0633089 17.7842372,17.8841516 C18.9797381,16.7059301 20.4219296,16.1154157 22.1108118,16.1154157 C23.799694,16.1154157 25.2418856,16.7059301 26.4373865,17.8841516 Z M33.3285951,37.162701 C33.3285951,38.4204688 32.9414806,39.4133941 32.1663026,40.1405411 C31.3901758,40.8704956 30.3597679,41.2326654 29.0741301,41.2326654 L15.1474936,41.2326654 C13.8618557,41.2326654 12.8314478,40.8704956 12.0562699,40.1405411 C11.2801431,39.4133941 10.8930285,38.4204688 10.8930285,37.162701 C10.8930285,36.6077484 10.9120047,36.0658976 10.9490083,35.5362127 C10.9860119,35.0065277 11.0600191,34.4366017 11.1719787,33.8226912 C11.2829895,33.2097166 11.4243623,32.6416623 11.5941993,32.1175924 C11.7640363,31.5935224 11.9926996,31.0834901 12.2792403,30.5846879 C12.565781,30.0877573 12.8959669,29.6638222 13.2669517,29.3119467 C13.6388853,28.961007 14.0924166,28.6802553 14.6294432,28.4715631 C15.165521,28.262871 15.7585274,28.1571212 16.4065648,28.1571212 C16.5023946,28.1571212 16.725365,28.2703577 17.075476,28.4949591 C17.4265357,28.7204963 17.8221896,28.9722371 18.2624376,29.2492454 C18.7036343,29.5271897 19.2776645,29.7789304 19.9835793,30.0044676 C20.6904429,30.2281332 21.3982553,30.3413697 22.1108118,30.3413697 C22.8224195,30.3413697 23.5311807,30.2281332 24.2380444,30.0044676 C24.9439592,29.7789304 25.5179893,29.5271897 25.9591861,29.2492454 C26.399434,28.9722371 26.7960367,28.7204963 27.1461477,28.4949591 C27.4972075,28.2703577 27.7201779,28.1571212 27.8160077,28.1571212 C28.4630963,28.1571212 29.0561027,28.262871 29.5921805,28.4715631 C30.129207,28.6802553 30.5827383,28.961007 30.9546719,29.3119467 C31.3266056,29.6638222 31.6558427,30.0877573 31.9423834,30.5846879 C32.2289241,31.0834901 32.4575873,31.5935224 32.6283732,32.1175924 C32.7982102,32.6416623 32.9386341,33.2097166 33.0496449,33.8226912 C33.1616045,34.4366017 33.2356117,35.0065277 33.2735641,35.5362127 C33.3105677,36.0658976 33.3285951,36.6077484 33.3285951,37.162701 Z" id="Stroke-7-Copy-4" stroke="#4A4A4A" stroke-width="0.512" fill="#FFFFFF"></path>
                        <path d="M25.3794694,10.755911 C25.2153253,10.5949466 25.0208192,10.5135286 24.7950023,10.5135286 C24.5929057,10.5135286 24.4107342,10.5949466 24.2475388,10.755911 C24.0833947,10.9178111 24.001797,11.0965564 24.001797,11.2958901 C24.001797,11.5186198 24.0833947,11.7114027 24.2475388,11.872367 C24.4107342,12.0333314 24.5929057,12.1138135 24.7950023,12.1138135 C25.0208192,12.1138135 25.2153253,12.0333314 25.3794694,11.872367 C25.5426648,11.7114027 25.6242625,11.5186198 25.6242625,11.2958901 C25.6242625,11.0965564 25.5426648,10.9178111 25.3794694,10.755911 L25.3794694,10.755911 Z M22.1535147,10.755911 C22.0026538,10.5949466 21.8138406,10.5135286 21.587075,10.5135286 C21.3612581,10.5135286 21.1724449,10.5949466 21.0215841,10.755911 C20.8707232,10.9178111 20.7948184,11.0965564 20.7948184,11.2958901 C20.7948184,11.5186198 20.8707232,11.7114027 21.0215841,11.872367 C21.1724449,12.0333314 21.3612581,12.1138135 21.587075,12.1138135 C21.8138406,12.1138135 22.0026538,12.0333314 22.1535147,11.872367 C22.3043755,11.7114027 22.3802803,11.5186198 22.3802803,11.2958901 C22.3802803,11.0965564 22.3043755,10.9178111 22.1535147,10.755911 L22.1535147,10.755911 Z M18.9275599,10.755911 C18.7634157,10.5949466 18.5812442,10.5135286 18.3810452,10.5135286 C18.1542796,10.5135286 17.9597735,10.5949466 17.7956293,10.755911 C17.6314851,10.9178111 17.5508363,11.0965564 17.5508363,11.2958901 C17.5508363,11.5186198 17.6314851,11.7114027 17.7956293,11.872367 C17.9597735,12.0333314 18.1542796,12.1138135 18.3810452,12.1138135 C18.5812442,12.1138135 18.7634157,12.0333314 18.9275599,11.872367 C19.0917041,11.7114027 19.1723529,11.5186198 19.1723529,11.2958901 C19.1723529,11.0965564 19.0917041,10.9178111 18.9275599,10.755911 L18.9275599,10.755911 Z M28.9545864,6.80386235 C28.9545864,6.60359278 28.8530637,6.50252215 28.6490695,6.50252215 L16.1959352,6.50252215 C15.9909922,6.50252215 15.8904184,6.60359278 15.8904184,6.80386235 L15.8904184,14.3991327 C15.8904184,14.5994022 15.9909922,14.7004728 16.1959352,14.7004728 L17.6694375,14.7004728 L19.6429628,14.7004728 L28.6490695,14.7004728 C28.8530637,14.7004728 28.9545864,14.5994022 28.9545864,14.3991327 L28.9545864,6.80386235 Z M29.5381046,6.80386235 L29.5381046,14.3991327 C29.5381046,14.6546167 29.4546093,14.8651805 29.2885676,15.0289524 C29.121577,15.1936601 28.9080947,15.2760139 28.6490695,15.2760139 L19.8649844,15.2760139 L17.0849704,15.2760139 L16.1959352,15.2760139 C15.9359612,15.2760139 15.7234278,15.1936601 15.5564372,15.0289524 C15.3894466,14.8651805 15.3059513,14.6546167 15.3059513,14.3991327 L15.3059513,6.80386235 C15.3059513,6.56615921 15.3894466,6.36121045 15.5564372,6.18714437 C15.7234278,6.01401413 15.9359612,5.92698109 16.1959352,5.92698109 L28.6490695,5.92698109 C28.9080947,5.92698109 29.121577,6.01401413 29.2885676,6.18714437 C29.4546093,6.36121045 29.5381046,6.56615921 29.5381046,6.80386235 Z" id="Fill-9" fill="#F2565B"></path>
                        <path d="M27.0092707,12.9800088 C26.812867,12.9800088 26.6534668,12.8227878 26.6534668,12.6290691 L26.6534668,7.51845169 C26.6534668,7.32473299 26.812867,7.16751202 27.0092707,7.16751202 C27.2056744,7.16751202 27.3650745,7.32473299 27.3650745,7.51845169 L27.3650745,12.6290691 C27.3650745,12.8227878 27.2056744,12.9800088 27.0092707,12.9800088" id="Fill-11" fill="#F2565B"></path>
                    </g>
                    <path d="M54.6230503,79.469096 C52.0157454,80.0512297 49.2996545,80.3589018 46.5091657,80.3589018 C26.6943652,80.3589018 10.6308426,64.8455026 10.6308426,45.7092944 C10.6308426,26.5750111 26.6943652,11.0596869 46.5091657,11.0596869 C66.3239663,11.0596869 82.3874889,26.5750111 82.3874889,45.7092944 C82.3874889,47.2851432 82.2785562,48.8364244 82.0675665,50.3564978 C82.1548017,49.4019896 82.1993465,48.4356519 82.1993465,47.4592745 C82.1993465,29.4846448 67.0996352,14.9096433 48.4737227,14.9096433 C29.8478102,14.9096433 14.748099,29.4846448 14.748099,47.4592745 C14.748099,65.4357125 29.8478102,80.0089058 48.4737227,80.0089058 C50.5738603,80.0089058 52.629168,79.8236315 54.6230555,79.4690949 Z" id="Combined-Shape-Copy-2" fill-opacity="0.8" fill="#E8E8E7" transform="translate(46.509166, 45.709294) scale(-1, 1) rotate(-22.000000) translate(-46.509166, -45.709294) "></path>
                    <path d="M45.8856017,81.2602184 C26.0708011,81.2602184 10.0072786,65.5235092 10.0072786,46.1118421 C10.0072786,26.7021277 26.0708011,10.9634658 45.8856017,10.9634658 C65.7004023,10.9634658 81.7639248,26.7021277 81.7639248,46.1118421 C81.7639248,65.5235092 65.7004023,81.2602184 45.8856017,81.2602184 Z" id="Stroke-7-Copy-8" stroke="url(#linearGradient-1)" stroke-width="0.8"></path>
                </g>
                <path d="M95.3031042,56.5851109 L78.9456749,72.8870688 C78.6241513,73.207502 78.2423478,73.3677162 77.8002529,73.3677162 C77.358158,73.3677162 76.9763545,73.207502 76.654831,72.8870688 L68.0139285,64.2754694 C67.6924049,63.9550362 67.5316456,63.5745275 67.5316456,63.1339318 C67.5316456,62.6933362 67.6924049,62.3128274 68.0139285,61.9923942 L70.2243919,59.789427 C70.5459155,59.4689937 70.927719,59.3087795 71.3698139,59.3087795 C71.8119088,59.3087795 72.1937123,59.4689937 72.5152358,59.789427 L77.8002529,65.0565214 L90.8017969,52.0990685 C91.1233204,51.7786353 91.5051239,51.6184211 91.9472188,51.6184211 C92.3893137,51.6184211 92.7711172,51.7786353 93.0926408,52.0990685 L95.3031042,54.3020357 C95.6246278,54.6224689 95.7853871,55.0029777 95.7853871,55.4435733 C95.7853871,55.884169 95.6246278,56.2646777 95.3031042,56.5851109 L95.3031042,56.5851109 Z" id="Path-Copy-2" fill="url(#linearGradient-2)"></path>
            </g>
        </g>
    </g>
</svg>