<?xml version="1.0" encoding="UTF-8" standalone="no"?>
<svg width="131px" height="112px" viewBox="0 0 131 112" version="1.1" xmlns="http://www.w3.org/2000/svg" xmlns:xlink="http://www.w3.org/1999/xlink">
    <!-- Generator: Sketch 41.2 (35397) - http://www.bohemiancoding.com/sketch -->
    <title>Group 6</title>
    <desc>Created with Sketch.</desc>
    <defs>
        <linearGradient x1="-1.11022302e-14%" y1="50%" x2="100%" y2="50%" id="linearGradient-1">
            <stop stop-color="#FBDA61" offset="0%"></stop>
            <stop stop-color="#F76B1C" offset="100%"></stop>
        </linearGradient>
        <linearGradient x1="100%" y1="50%" x2="2.30986926%" y2="50%" id="linearGradient-2">
            <stop stop-color="#5BEDAC" offset="0%"></stop>
            <stop stop-color="#2DAB49" offset="100%"></stop>
        </linearGradient>
    </defs>
    <g id="SMP-flows" stroke="none" stroke-width="1" fill="none" fill-rule="evenodd">
        <g id="Alice-3" transform="translate(-770.000000, -166.000000)">
            <g id="Group-6" transform="translate(761.000000, 157.000000)">
                <g id="Group-5" transform="translate(0.000000, 37.000000)">
                    <g id="Group-10" transform="translate(23.000000, 34.000000)">
                        <path d="M44.2990354,5.68455577 C45.1080058,6.50075992 45.5118489,7.48473936 45.5118489,8.63908522 C45.5118489,9.79148774 45.1080058,10.7754672 44.2990354,11.5916713 C43.490065,12.4085233 42.5141642,12.8159775 41.371333,12.8159775 C40.2285018,12.8159775 39.252601,12.4085233 38.4436306,11.5916713 C37.6353022,10.7754672 37.230817,9.79148774 37.230817,8.63908522 C37.230817,7.48473936 37.6353022,6.50075992 38.4436306,5.68455577 C39.252601,4.86899941 40.2285018,4.46024955 41.371333,4.46024955 C42.5141642,4.46024955 43.490065,4.86899941 44.2990354,5.68455577 Z M48.9621719,19.3532101 C48.9621719,20.2238279 48.7002196,20.9111236 48.1756729,21.4144495 C47.6504842,21.9197187 46.9532287,22.17041 46.0832645,22.17041 L36.6594014,22.17041 C35.7894372,22.17041 35.0921818,21.9197187 34.5676351,21.4144495 C34.0424464,20.9111236 33.7804941,20.2238279 33.7804941,19.3532101 C33.7804941,18.9690759 33.7933349,18.5940107 33.8183744,18.2273666 C33.843414,17.8607225 33.8934931,17.4662239 33.9692538,17.0412795 C34.0443725,16.6169829 34.1400365,16.2237798 34.2549616,15.8610224 C34.3698868,15.498265 34.5246184,15.1452243 34.7185145,14.799957 C34.9124106,14.4559852 35.1358405,14.1625404 35.3868782,13.9189747 C35.6385578,13.6760568 35.945453,13.4817225 36.3088476,13.3372673 C36.6716002,13.1928122 37.0728752,13.1196129 37.5113885,13.1196129 C37.5762346,13.1196129 37.727114,13.1979944 37.9640267,13.3534619 C38.2015815,13.5095771 38.4693122,13.6838302 38.7672188,13.8755734 C39.0657674,14.0679644 39.4542016,14.2422175 39.9318793,14.3983327 C40.4101991,14.5531524 40.889161,14.6315339 41.371333,14.6315339 C41.852863,14.6315339 42.3324669,14.5531524 42.8107867,14.3983327 C43.2884644,14.2422175 43.6768986,14.0679644 43.9754472,13.8755734 C44.2733538,13.6838302 44.5417265,13.5095771 44.7786393,13.3534619 C45.0161941,13.1979944 45.1670735,13.1196129 45.2319195,13.1196129 C45.6697908,13.1196129 46.0710658,13.1928122 46.4338184,13.3372673 C46.797213,13.4817225 47.1041081,13.6760568 47.3557878,13.9189747 C47.6074675,14.1625404 47.8302554,14.4559852 48.0241515,14.799957 C48.2180475,15.1452243 48.3727792,15.498265 48.4883464,15.8610224 C48.6032715,16.2237798 48.6982935,16.6169829 48.7734121,17.0412795 C48.8491729,17.4662239 48.899252,17.8607225 48.9249336,18.2273666 C48.9499731,18.5940107 48.9621719,18.9690759 48.9621719,19.3532101 Z" id="Stroke-7" stroke="#4A4A4A" stroke-width="0.64" fill="#FFFFFF"></path>
                        <g id="Group-4">
                            <path d="M10.7455099,12.2945379 C11.5544803,13.1107421 11.9583235,14.0947215 11.9583235,15.2490674 C11.9583235,16.4014699 11.5544803,17.3854494 10.7455099,18.2016535 C9.93653951,19.0185054 8.96063871,19.4259597 7.81780751,19.4259597 C6.67497632,19.4259597 5.69907552,19.0185054 4.89010512,18.2016535 C4.08177676,17.3854494 3.67729156,16.4014699 3.67729156,15.2490674 C3.67729156,14.0947215 4.08177676,13.1107421 4.89010512,12.2945379 C5.69907552,11.4789816 6.67497632,11.0702317 7.81780751,11.0702317 C8.96063871,11.0702317 9.93653951,11.4789816 10.7455099,12.2945379 Z M15.4086464,24.9631923 C15.4086464,25.83381 15.1466941,26.5211058 14.6221474,27.0244317 C14.0969587,27.5297009 13.3997033,27.7803922 12.5297391,27.7803922 L3.10587596,27.7803922 C2.23591176,27.7803922 1.53865632,27.5297009 1.01410964,27.0244317 C0.488920925,26.5211058 0.226968605,25.83381 0.226968605,24.9631923 C0.226968605,24.5790581 0.239809405,24.2039929 0.264848965,23.8373488 C0.289888525,23.4707047 0.339967645,23.076206 0.415728365,22.6512617 C0.490847045,22.2269651 0.586511005,21.833762 0.701436165,21.4710046 C0.816361324,21.1082472 0.971092964,20.7552065 1.16498904,20.4099392 C1.35888512,20.0659674 1.58231504,19.7725226 1.83335268,19.5289569 C2.08503236,19.286039 2.39192748,19.0917047 2.75532212,18.9472495 C3.11807472,18.8027943 3.51934972,18.7295951 3.95786304,18.7295951 C4.02270908,18.7295951 4.17358848,18.8079766 4.41050124,18.963444 C4.64805604,19.1195593 4.91578672,19.2938124 5.21369328,19.4855556 C5.51224188,19.6779466 5.90067608,19.8521997 6.37835384,20.0083149 C6.85667364,20.1631346 7.33563547,20.2415161 7.81780751,20.2415161 C8.29933751,20.2415161 8.77894139,20.1631346 9.25726119,20.0083149 C9.73493895,19.8521997 10.1233732,19.6779466 10.4219218,19.4855556 C10.7198283,19.2938124 10.988201,19.1195593 11.2251138,18.963444 C11.4626686,18.8079766 11.613548,18.7295951 11.678394,18.7295951 C12.1162653,18.7295951 12.5175403,18.8027943 12.8802929,18.9472495 C13.2436875,19.0917047 13.5505827,19.286039 13.8022623,19.5289569 C14.053942,19.7725226 14.2767299,20.0659674 14.470626,20.4099392 C14.6645221,20.7552065 14.8192537,21.1082472 14.9348209,21.4710046 C15.0497461,21.833762 15.144768,22.2269651 15.2198867,22.6512617 C15.2956474,23.076206 15.3457265,23.4707047 15.3714081,23.8373488 C15.3964477,24.2039929 15.4086464,24.5790581 15.4086464,24.9631923 Z" id="Stroke-7-Copy-5" fill="#4A4A4A"></path>
                            <path d="M28.7313433,7.9144385 C28.7313433,7.53181627 28.5951888,7.20514841 28.3228758,6.93442513 C28.0505628,6.66370185 27.7219766,6.52834225 27.3371076,6.52834225 C26.9522385,6.52834225 26.6236524,6.66370185 26.3513393,6.93442513 C26.0790263,7.20514841 25.9428718,7.53181627 25.9428718,7.9144385 C25.9428718,8.29706074 26.0790263,8.62372859 26.3513393,8.89445187 C26.6236524,9.16517515 26.9522385,9.30053476 27.3371076,9.30053476 C27.7219766,9.30053476 28.0505628,9.16517515 28.3228758,8.89445187 C28.5951888,8.62372859 28.7313433,8.29706074 28.7313433,7.9144385 Z M24.0064334,7.9144385 C24.0064334,7.53181627 23.8702789,7.20514841 23.5979659,6.93442513 C23.3256528,6.66370185 22.9970667,6.52834225 22.6121976,6.52834225 C22.2273286,6.52834225 21.8987424,6.66370185 21.6264294,6.93442513 C21.3541164,7.20514841 21.2179619,7.53181627 21.2179619,7.9144385 C21.2179619,8.29706074 21.3541164,8.62372859 21.6264294,8.89445187 C21.8987424,9.16517515 22.2273286,9.30053476 22.6121976,9.30053476 C22.9970667,9.30053476 23.3256528,9.16517515 23.5979659,8.89445187 C23.8702789,8.62372859 24.0064334,8.29706074 24.0064334,7.9144385 Z M19.2815234,7.9144385 C19.2815234,7.53181627 19.1453689,7.20514841 18.8730559,6.93442513 C18.6007429,6.66370185 18.2721568,6.52834225 17.8872877,6.52834225 C17.5024186,6.52834225 17.1738325,6.66370185 16.9015195,6.93442513 C16.6292065,7.20514841 16.493052,7.53181627 16.493052,7.9144385 C16.493052,8.29706074 16.6292065,8.62372859 16.9015195,8.89445187 C17.1738325,9.16517515 17.5024186,9.30053476 17.8872877,9.30053476 C18.2721568,9.30053476 18.6007429,9.16517515 18.8730559,8.89445187 C19.1453689,8.62372859 19.2815234,8.29706074 19.2815234,7.9144385 Z" id="" fill="#F2565B"></path>
                            <path d="M32.2169326,7.21996435 C32.2169326,8.47612036 31.7812383,9.63660341 30.9098366,10.7014483 C30.0384349,11.7662932 28.8547987,12.6073276 27.3588925,13.2245766 C25.8629863,13.8418257 24.2291326,14.1504456 22.4572826,14.1504456 C21.6584977,14.1504456 20.8924019,14.085473 20.1589721,13.9555258 C18.9027014,15.2044626 17.3233095,16.0310586 15.4207492,16.4353387 C15.0431418,16.5075316 14.7308942,16.5544562 14.483997,16.5761141 C14.3968569,16.5833334 14.3169796,16.5616758 14.2443628,16.5111408 C14.171746,16.4606058 14.1245458,16.3956332 14.1027607,16.316221 C14.073714,16.2079317 14.1463297,16.0743769 14.32061,15.9155526 C14.3569184,15.8794561 14.4422419,15.80185 14.576583,15.6827317 C14.7109241,15.5636135 14.8035091,15.4787881 14.8543409,15.4282531 C14.9051727,15.3777181 14.9904961,15.2856736 15.1103139,15.1521168 C15.2301316,15.0185599 15.3172705,14.9048579 15.3717331,14.8110071 C15.4261957,14.7171564 15.5006268,14.5836016 15.5950286,14.4103387 C15.6894305,14.2370758 15.7620462,14.0638155 15.812878,13.8905526 C15.8637097,13.7172897 15.9163561,13.5097383 15.9708187,13.2678922 C16.0252813,13.026046 16.0706662,12.7643508 16.1069746,12.4827986 C15.0467692,11.8330627 14.2135038,11.0515866 13.6071535,10.1383467 C13.0008031,9.22510684 12.6976325,8.25232245 12.6976325,7.21996435 C12.6976325,5.96380834 13.1333268,4.80332529 14.0047285,3.73848039 C14.8761302,2.6736355 16.0597664,1.83260113 17.5556726,1.21535205 C19.0515788,0.598102974 20.6854325,0.289483066 22.4572826,0.289483066 C24.2291326,0.289483066 25.8629863,0.598102974 27.3588925,1.21535205 C28.8547987,1.83260113 30.0384349,2.6736355 30.9098366,3.73848039 C31.7812383,4.80332529 32.2169326,5.96380834 32.2169326,7.21996435 Z" id="Path" stroke="#F2565B" stroke-width="0.64"></path>
                        </g>
                    </g>
                    <path d="M55.4206957,81.1654798 C52.7663517,81.7617183 50.0012591,82.0768451 47.1604264,82.0768451 C26.9881423,82.0768451 10.6348139,66.1875656 10.6348139,46.5876988 C10.6348139,26.9898035 26.9881423,11.0985524 47.1604264,11.0985524 C67.3327105,11.0985524 83.6860388,26.9898035 83.6860388,46.5876988 C83.6860388,48.2017294 83.5751409,49.7905973 83.3603447,51.3475012 C83.4491537,50.3698658 83.4945021,49.3801143 83.4945021,48.3800799 C83.4945021,29.9699359 68.1223734,15.0417909 49.1604264,15.0417909 C30.1984793,15.0417909 14.8263507,29.9699359 14.8263507,48.3800799 C14.8263507,66.792076 30.1984793,81.7183689 49.1604264,81.7183689 C51.298453,81.7183689 53.390841,81.5286055 55.4207007,81.1654787 Z" id="Combined-Shape-Copy" fill-opacity="0.8" fill="#E8E8E7" transform="translate(47.160426, 46.587699) rotate(-22.000000) translate(-47.160426, -46.587699) "></path>
                    <path d="M46.5256125,83 C26.3533284,83 10,66.882 10,47 C10,27.12 26.3533284,11 46.5256125,11 C66.6978966,11 83.0512249,27.12 83.0512249,47 C83.0512249,66.882 66.6978966,83 46.5256125,83 Z" id="Stroke-7-Copy-7" stroke="url(#linearGradient-1)" transform="translate(46.525612, 47.000000) scale(-1, 1) translate(-46.525612, -47.000000) "></path>
                </g>
                <g id="Group-3" transform="translate(62.000000, 0.000000)">
                    <g id="Group" transform="translate(0.320853, 0.000000)">
                        <g id="Group-2" transform="translate(19.200000, 22.542553)">
                            <g id="computer" transform="translate(0.143284, 0.281602)">
                                <rect id="Rectangle-5" fill="#FFFFFF" x="6.16119403" y="2.02753442" width="24.1313433" height="13.2211304"></rect>
                                <rect id="Rectangle-3-Copy-14" fill="#E9E9EA" x="30.5259159" y="0" width="1.54029851" height="17.2340426" rx="0.770149254"></rect>
                                <rect id="Rectangle-3-Copy-15" fill="#E9E9EA" transform="translate(26.931886, 17.994368) rotate(-90.000000) translate(-26.931886, -17.994368) " x="26.1617368" y="9.37734668" width="1.54029851" height="17.2340426" rx="0.770149254"></rect>
                                <rect id="Rectangle-3-Copy-16" fill="#E9E9EA" transform="translate(27.958752, 19.008135) rotate(-90.000000) translate(-27.958752, -19.008135) " x="27.1886024" y="12.9255319" width="1.54029851" height="12.1652065" rx="0.770149254"></rect>
                                <rect id="Rectangle-3-Copy-17" fill="#E9E9EA" transform="translate(22.824423, 16.473717) rotate(-90.000000) translate(-22.824423, -16.473717) " x="22.0542741" y="7.85669587" width="1.54029851" height="17.2340426" rx="0.770149254"></rect>
                                <path d="M18.0164151,0.891563893 C17.8772077,0.891563893 17.8090245,0.981564034 17.8090245,1.16437682 C17.8090245,1.30218953 17.8772077,1.37109589 18.0164151,1.37109589 C18.1996575,1.37109589 18.2934094,1.30218953 18.2934094,1.16437682 C18.2934094,0.981564034 18.1996575,0.891563893 18.0164151,0.891563893 L18.0164151,0.891563893 Z M6.32299256,15.3436177 L29.9172283,15.3436177 L29.9172283,2.32875364 L27.7722978,2.32875364 L27.0805222,2.32875364 L26.1117522,2.32875364 L25.4199766,2.32875364 L24.243816,2.32875364 L23.5506199,2.32875364 L6.32299256,2.32875364 L6.32299256,15.3436177 Z M5.76900388,15.8920561 L30.4697965,15.8920561 L30.4697965,1.78172153 L5.76900388,1.78172153 L5.76900388,15.8920561 Z M4.59284331,16.9875265 L31.7169812,16.9875265 L31.7169812,1.30218953 C31.7169812,0.8001575 31.4627146,0.548438357 30.9541814,0.548438357 L5.35422262,0.548438357 C4.84568942,0.548438357 4.59284331,0.8001575 4.59284331,1.30218953 L4.59284331,16.9875265 Z M2.5871202,19.7283121 L33.3079231,19.7283121 L34.0693024,19.1798737 L1.75613718,19.1798737 L2.5871202,19.7283121 Z M35.1758593,17.7412777 C35.1758593,17.5598712 35.0821073,17.4670585 34.8988649,17.4670585 L0.994757872,17.4670585 C0.81009498,17.4670585 0.717763533,17.5598712 0.717763533,17.7412777 L0.717763533,18.4275288 C0.717763533,18.4725289 0.787367239,18.562529 0.92657465,18.7003417 L0.92657465,18.6314354 L0.994757872,18.7003417 L34.8988649,18.7003417 C35.0821073,18.7003417 35.1758593,18.6103416 35.1758593,18.4275288 L35.1758593,17.7412777 Z M35.6602442,17.7412777 L35.6602442,18.4275288 C35.6602442,18.8381544 35.4528536,19.0884673 35.0366519,19.1798737 L33.5153137,20.2064378 L33.5153137,20.2753442 L2.31012586,20.2753442 L2.31012586,20.2064378 L0.787367239,19.1798737 C0.41662097,19.0434673 0.233378562,18.7917481 0.233378562,18.4275288 L0.233378562,17.7412777 C0.233378562,17.2392457 0.486224676,16.9875265 0.994757872,16.9875265 L4.04027511,16.9875265 L4.04027511,1.30218953 C4.04027511,0.981564034 4.16669817,0.686251072 4.41954428,0.410625642 C4.6723904,0.137812715 4.98347635,0 5.35422262,0 L30.9541814,0 C31.2766313,0 31.56641,0.126562698 31.8192561,0.376875589 C32.0735227,0.628594732 32.1999457,0.936563963 32.1999457,1.30218953 L32.1999457,16.9875265 L34.8988649,16.9875265 C35.4059776,16.9875265 35.6602442,17.2392457 35.6602442,17.7412777 L35.6602442,17.7412777 Z" id="Fill-3-Copy-3" fill="#4A4A4A"></path>
                            </g>
                            <path d="M21.5314797,14.6150056 C22.5051351,15.578618 22.99119,16.7403063 22.99119,18.1031296 C22.99119,19.4636585 22.5051351,20.6253468 21.5314797,21.5889592 C20.5578243,22.5533364 19.383256,23.0343778 18.0077746,23.0343778 C16.6322932,23.0343778 15.4577248,22.5533364 14.4840695,21.5889592 C13.5111869,20.6253468 13.0243592,19.4636585 13.0243592,18.1031296 C13.0243592,16.7403063 13.5111869,15.578618 14.4840695,14.6150056 C15.4577248,13.652158 16.6322932,13.169587 18.0077746,13.169587 C19.383256,13.169587 20.5578243,13.652158 21.5314797,14.6150056 Z M27.1439074,30.3695191 C27.1439074,31.3973724 26.8286285,32.2087952 26.197298,32.8030229 C25.5651948,33.3995448 24.7259966,33.6955115 23.6789307,33.6955115 L12.3366185,33.6955115 C11.2895526,33.6955115 10.4503544,33.3995448 9.81902391,32.8030229 C9.18692067,32.2087952 8.87164179,31.3973724 8.87164179,30.3695191 C8.87164179,29.9160095 8.88709664,29.4732066 8.91723359,29.0403458 C8.94737054,28.607485 9.00764444,28.141739 9.09882804,27.6400487 C9.1892389,27.1391232 9.30437751,26.6749068 9.44269839,26.2466346 C9.58101927,25.8183624 9.76725017,25.4015618 10.0006184,24.9939385 C10.2339866,24.5878447 10.5029009,24.2414031 10.8050431,23.9538489 C11.1079581,23.6670595 11.477329,23.437628 11.9147012,23.2670839 C12.3513006,23.0965398 12.8342646,23.0101205 13.3620476,23.0101205 C13.4400946,23.0101205 13.621689,23.1026579 13.9068309,23.2862031 C14.1927456,23.4705131 14.5149792,23.6762367 14.8735316,23.9026092 C15.2328568,24.1297464 15.7003659,24.33547 16.2752862,24.51978 C16.8509793,24.7025604 17.4274451,24.7950978 18.0077746,24.7950978 C18.5873313,24.7950978 19.1645699,24.7025604 19.7402629,24.51978 C20.3151832,24.33547 20.7826924,24.1297464 21.1420175,23.9026092 C21.50057,23.6762367 21.8235763,23.4705131 22.1087182,23.2862031 C22.3946329,23.1026579 22.5762273,23.0101205 22.6542743,23.0101205 C23.1812846,23.0101205 23.6642486,23.0965398 24.100848,23.2670839 C24.5382202,23.437628 24.907591,23.6670595 25.210506,23.9538489 C25.513421,24.2414031 25.7815626,24.5878447 26.0149308,24.9939385 C26.248299,25.4015618 26.4345299,25.8183624 26.5736235,26.2466346 C26.7119444,26.6749068 26.8263103,27.1391232 26.9167211,27.6400487 C27.0079047,28.141739 27.0681786,28.607485 27.0990883,29.0403458 C27.1292253,29.4732066 27.1439074,29.9160095 27.1439074,30.3695191 Z" id="Stroke-7-Copy-4" stroke="#4A4A4A" stroke-width="0.512" fill="#FFFFFF"></path>
                            <path d="M20.6698772,8.78977669 C20.5361927,8.65823595 20.3777806,8.59170081 20.1938679,8.59170081 C20.0292738,8.59170081 19.8809072,8.65823595 19.7479955,8.78977669 C19.6143111,8.92208221 19.5478553,9.06815361 19.5478553,9.23105 C19.5478553,9.41306567 19.6143111,9.57060866 19.7479955,9.7021494 C19.8809072,9.83369014 20.0292738,9.89946051 20.1938679,9.89946051 C20.3777806,9.89946051 20.5361927,9.83369014 20.6698772,9.7021494 C20.8027888,9.57060866 20.8692447,9.41306567 20.8692447,9.23105 C20.8692447,9.06815361 20.8027888,8.92208221 20.6698772,8.78977669 L20.6698772,8.78977669 Z M18.0425532,8.78977669 C17.9196871,8.65823595 17.7659114,8.59170081 17.581226,8.59170081 C17.3973133,8.59170081 17.2435376,8.65823595 17.1206716,8.78977669 C16.9978055,8.92208221 16.9359861,9.06815361 16.9359861,9.23105 C16.9359861,9.41306567 16.9978055,9.57060866 17.1206716,9.7021494 C17.2435376,9.83369014 17.3973133,9.89946051 17.581226,9.89946051 C17.7659114,9.89946051 17.9196871,9.83369014 18.0425532,9.7021494 C18.1654192,9.57060866 18.2272386,9.41306567 18.2272386,9.23105 C18.2272386,9.06815361 18.1654192,8.92208221 18.0425532,8.78977669 L18.0425532,8.78977669 Z M15.4152292,8.78977669 C15.2815448,8.65823595 15.1331782,8.59170081 14.9701296,8.59170081 C14.7854442,8.59170081 14.627032,8.65823595 14.4933476,8.78977669 C14.3596631,8.92208221 14.29398,9.06815361 14.29398,9.23105 C14.29398,9.41306567 14.3596631,9.57060866 14.4933476,9.7021494 C14.627032,9.83369014 14.7854442,9.89946051 14.9701296,9.89946051 C15.1331782,9.89946051 15.2815448,9.83369014 15.4152292,9.7021494 C15.5489136,9.57060866 15.6145967,9.41306567 15.6145967,9.23105 C15.6145967,9.06815361 15.5489136,8.92208221 15.4152292,8.78977669 L15.4152292,8.78977669 Z M23.5815703,5.56014558 C23.5815703,5.39648442 23.4988869,5.31388907 23.3327473,5.31388907 L13.190504,5.31388907 C13.0235916,5.31388907 12.9416809,5.39648442 12.9416809,5.56014558 L12.9416809,11.7670331 C12.9416809,11.9306943 13.0235916,12.0132896 13.190504,12.0132896 L14.3905728,12.0132896 L15.9978769,12.0132896 L23.3327473,12.0132896 C23.4988869,12.0132896 23.5815703,11.9306943 23.5815703,11.7670331 L23.5815703,5.56014558 Z M24.0568069,5.56014558 L24.0568069,11.7670331 C24.0568069,11.9758158 23.9888055,12.1478895 23.8535756,12.2817245 C23.717573,12.4163244 23.543706,12.4836243 23.3327473,12.4836243 L16.1786986,12.4836243 L13.9145635,12.4836243 L13.190504,12.4836243 C12.9787726,12.4836243 12.8056783,12.4163244 12.6696756,12.2817245 C12.533673,12.1478895 12.4656716,11.9758158 12.4656716,11.7670331 L12.4656716,5.56014558 C12.4656716,5.36589355 12.533673,5.19840854 12.6696756,5.05616099 C12.8056783,4.91467822 12.9787726,4.84355444 13.190504,4.84355444 L23.3327473,4.84355444 C23.543706,4.84355444 23.717573,4.91467822 23.8535756,5.05616099 C23.9888055,5.19840854 24.0568069,5.36589355 24.0568069,5.56014558 Z" id="Fill-9" fill="#F2565B"></path>
                            <path d="M21.9972411,10.607319 C21.8372834,10.607319 21.7074627,10.4788374 21.7074627,10.3205296 L21.7074627,6.14411106 C21.7074627,5.98580331 21.8372834,5.85732165 21.9972411,5.85732165 C22.1571987,5.85732165 22.2870194,5.98580331 22.2870194,6.14411106 L22.2870194,10.3205296 C22.2870194,10.4788374 22.1571987,10.607319 21.9972411,10.607319" id="Fill-11" fill="#F2565B"></path>
                        </g>
                        <path d="M44.4868143,65.7596913 C42.3633391,66.2354135 40.151265,66.4868445 37.8785989,66.4868445 C21.7407716,66.4868445 8.65810893,53.8092279 8.65810893,38.1710362 C8.65810893,22.5344177 21.7407716,9.85522799 37.8785989,9.85522799 C54.0164262,9.85522799 67.0990889,22.5344177 67.0990889,38.1710362 C67.0990889,39.4588267 67.0103705,40.7265404 66.8385336,41.9687509 C66.9095807,41.1887227 66.9458595,40.3990274 66.9458595,39.6011276 C66.9458595,24.9121829 54.6481565,13.0014289 39.4785989,13.0014289 C24.3090413,13.0014289 12.0113383,24.9121829 12.0113383,39.6011276 C12.0113383,54.29155 24.3090413,66.2008262 39.4785989,66.2008262 C41.1890202,66.2008262 42.8629306,66.0494193 44.4868184,65.7596904 Z" id="Combined-Shape-Copy-2" fill-opacity="0.8" fill="#E8E8E7" transform="translate(37.878599, 38.171036) scale(-1, 1) rotate(-22.000000) translate(-37.878599, -38.171036) "></path>
                        <path d="M37.3707478,67.2234043 C21.2329205,67.2234043 8.15025781,54.3632979 8.15025781,38.5 C8.15025781,22.6382979 21.2329205,9.77659574 37.3707478,9.77659574 C53.5085751,9.77659574 66.5912378,22.6382979 66.5912378,38.5 C66.5912378,54.3632979 53.5085751,67.2234043 37.3707478,67.2234043 Z" id="Stroke-7-Copy-8" stroke="url(#linearGradient-1)" stroke-width="0.8"></path>
                    </g>
                    <path d="M77.6179921,47.0588003 L64.295962,60.3808304 C64.0341026,60.6426898 63.7231493,60.7736175 63.3630926,60.7736175 C63.0030359,60.7736175 62.6920826,60.6426898 62.4302232,60.3808304 L55.3927871,53.3433944 C55.1309277,53.081535 55,52.7705816 55,52.4105249 C55,52.0504683 55.1309277,51.7395149 55.3927871,51.4776555 L57.1930615,49.6773812 C57.4549209,49.4155218 57.7658742,49.284594 58.1259309,49.284594 C58.4859876,49.284594 58.7969409,49.4155218 59.0588003,49.6773812 L63.3630926,53.9816734 L73.9519789,43.3927871 C74.2138383,43.1309277 74.5247917,43 74.8848483,43 C75.244905,43 75.5558584,43.1309277 75.8177177,43.3927871 L77.6179921,45.1930615 C77.8798515,45.4549209 78.0107792,45.7658742 78.0107792,46.1259309 C78.0107792,46.4859876 77.8798515,46.7969409 77.6179921,47.0588003 L77.6179921,47.0588003 Z" id="Path-Copy-2" fill="url(#linearGradient-2)"></path>
                </g>
            </g>
        </g>
    </g>
</svg>